<svg width="17" height="20" viewBox="0 0 17 20" fill="none" xmlns="http://www.w3.org/2000/svg">
<path fill-rule="evenodd" clip-rule="evenodd" d="M9.38349 14.8803C9.45325 14.668 9.54502 14.4595 9.64782 14.2625L9.7396 14.0927H9.55237C9.13386 14.0888 8.75573 13.861 8.53913 13.4865C8.48039 13.3861 8.38861 13.3127 8.27847 13.2857C8.16834 13.2587 8.05453 13.278 7.95908 13.3398C7.86363 13.4015 7.79388 13.4981 7.76818 13.6139C7.74248 13.7297 7.76084 13.8494 7.81958 13.9498C7.97744 14.2239 8.19404 14.4556 8.44368 14.6293L8.18302 15.8726L7.59931 15.1699C7.65805 15.0656 7.66539 14.9691 7.66172 14.8996C7.6507 14.7876 7.60298 14.6795 7.51854 14.6062C7.43411 14.529 7.32397 14.4903 7.21017 14.4981C7.09636 14.5058 6.99357 14.5598 6.92014 14.6486L6.45023 15.2162L5.1947 13.749C5.2828 13.556 5.33787 13.3552 5.36724 13.1429C6.63379 13.4903 7.95541 13.2239 9.01271 12.3977C10.1104 11.5405 10.7455 10.2317 10.7528 8.80309V6.42857C10.7382 6.19305 10.5546 6.01158 10.3307 6.01158C10.3233 6.01158 10.305 6.01158 10.2829 6.01544L10.2825 6.01548C10.1684 6.0271 9.86775 6.0577 9.56705 5.86873C9.03473 5.53282 9.02739 4.77606 9.02739 4.7722C9.02739 4.60618 8.94296 4.45174 8.79978 4.37452C8.6566 4.2973 8.4914 4.30888 8.35924 4.40541C7.05965 5.37452 5.53979 6.00772 3.96486 6.23938C3.85105 6.25483 3.75193 6.3166 3.68585 6.41313C3.6161 6.50965 3.5904 6.62548 3.60508 6.74131C3.63445 6.96139 3.81434 7.12355 4.0236 7.12355C4.07132 7.12355 4.63301 7.06178 5.42231 6.83012C6.13819 6.62162 7.20649 6.22394 8.30417 5.50965C8.55748 6.30502 9.1412 6.81467 9.90113 6.89961V8.76448C9.90113 10.7683 8.3519 12.3977 6.44656 12.3977C5.55814 12.3977 4.6844 12.027 4.05296 11.3822C3.37013 10.6873 2.99567 9.71428 2.99567 8.63706V6.4556C2.99567 6.20849 2.80477 6.01158 2.57349 6.01158C2.3422 6.01158 2.1513 6.21235 2.1513 6.4556V8.16602C2.06687 8.06178 2.01914 7.9305 2.01914 7.78764V4.55985C2.02281 3.58301 2.38626 2.66409 3.04707 1.96911C3.70788 1.27413 4.58528 0.891892 5.51409 0.891892H7.39372C9.32108 0.891892 10.885 2.54054 10.885 4.56371V7.79151C10.885 8.03861 11.0759 8.23552 11.3072 8.23552C11.5385 8.23552 11.7294 8.03475 11.7294 7.79151V6.76834C12.3131 6.96139 12.7243 7.53668 12.7243 8.18919V11.9035H12.482C11.8836 11.9035 11.3219 11.6255 10.9401 11.1429C10.7895 10.9537 10.5216 10.9266 10.3453 11.0849C10.1655 11.2432 10.1398 11.5251 10.2903 11.7104C10.595 12.0927 10.9841 12.3938 11.4247 12.5791L11.465 12.5946L11.5054 12.5791C11.9166 12.4131 12.3535 12.3282 12.794 12.3282C13.0106 12.3282 13.2309 12.3475 13.4438 12.39L13.5723 12.4131V8.18919C13.5723 7.05019 12.7867 6.06178 11.733 5.84942V4.56371C11.733 2.04633 9.78732 0 7.39372 0H5.51409C3.12049 0 1.17477 2.04633 1.17477 4.56371V7.79151C1.17477 8.44788 1.58227 9.0193 2.17333 9.20463C2.31283 10.749 3.21594 12.1236 4.54123 12.8185V12.834C4.54123 13.529 4.00524 14.0927 3.34076 14.0927C1.50151 14.0927 0 15.668 0 17.61V19.556C0 19.8031 0.190901 20 0.422184 20C0.653467 20 0.844368 19.7992 0.844368 19.556V17.61C0.844368 16.9073 1.10502 16.2471 1.57493 15.7529C2.04851 15.2548 2.67628 14.9807 3.34443 14.9807C3.45089 14.9807 3.56103 14.973 3.66749 14.9537L4.08233 16.9305C4.11537 17.0965 4.23652 17.2239 4.39071 17.2664C4.54857 17.3089 4.7101 17.2548 4.81657 17.1274L5.1947 16.668L4.85695 19.4981C4.84227 19.6255 4.87898 19.7529 4.95974 19.8494C5.04051 19.9459 5.15431 20 5.27913 20C5.49206 20 5.67195 19.834 5.69765 19.61L6.10882 16.1544C6.17123 16.2239 6.18224 16.2355 6.21528 16.2587C6.26301 16.2934 6.31807 16.3166 6.37314 16.3282C6.40985 16.3359 6.44289 16.3359 6.45391 16.3359C6.60809 16.3359 6.69987 16.2664 6.799 16.1544L7.21017 19.61C7.23586 19.834 7.41575 20 7.62868 20C7.74983 20 7.8673 19.9459 7.94807 19.8494C8.02884 19.7529 8.06555 19.6255 8.05086 19.4981L7.71312 16.668L8.09124 17.1274C8.19771 17.2548 8.35924 17.3089 8.51343 17.2664C8.67129 17.2239 8.78877 17.0965 8.82181 16.9305L9.23665 14.9537C9.24032 14.9537 9.24399 14.9546 9.24766 14.9556C9.25133 14.9566 9.255 14.9575 9.25867 14.9575L9.35045 14.973L9.38349 14.8803ZM5.29015 15.1969L4.72846 15.8764L4.46781 14.6293C4.53756 14.5792 4.60364 14.529 4.66972 14.4672L5.29015 15.1969ZM12.7945 12.5284C10.8635 12.5284 9.29223 14.1809 9.29223 16.2118C9.29223 18.2427 10.8635 19.8952 12.7945 19.8952C14.7256 19.8952 16.2968 18.2427 16.2968 16.2118C16.2968 14.1809 14.7256 12.5284 12.7945 12.5284ZM15.5259 16.2079C15.5259 17.791 14.2997 19.0805 12.7945 19.0805C11.2893 19.0805 10.0632 17.791 10.0632 16.2079C10.0632 14.6249 11.2893 13.3354 12.7945 13.3354C14.2997 13.3354 15.5259 14.6249 15.5259 16.2079ZM13.18 15.8028H14.1161C14.3291 15.8028 14.5016 15.9843 14.5016 16.2082C14.5016 16.4322 14.3291 16.6137 14.1161 16.6137H13.18V17.5982C13.18 17.8221 13.0074 18.0036 12.7945 18.0036C12.5816 18.0036 12.409 17.8221 12.409 17.5982V16.6137H11.4729C11.26 16.6137 11.0874 16.4322 11.0874 16.2082C11.0874 15.9843 11.26 15.8028 11.4729 15.8028H12.409V14.8183C12.409 14.5943 12.5816 14.4129 12.7945 14.4129C13.0074 14.4129 13.18 14.5943 13.18 14.8183V15.8028Z" fill="url(#paint0_linear_319_3291)"/>
<defs>
<linearGradient id="paint0_linear_319_3291" x1="7.91982" y1="-8.97455" x2="-10.9385" y2="6.39203" gradientUnits="userSpaceOnUse">
<stop stop-color="#16BAC5"/>
<stop offset="1" stop-color="#0184BB"/>
</linearGradient>
</defs>
</svg>
