<svg width="42" height="30" viewBox="0 0 42 30" fill="none" xmlns="http://www.w3.org/2000/svg">
<path fill-rule="evenodd" clip-rule="evenodd" d="M12.7276 4.39301C12.5908 4.50249 12.4265 4.55723 12.2623 4.55723C12.0297 4.55723 11.8244 4.44775 11.6738 4.26984C11.4275 3.94139 11.4823 3.47609 11.797 3.21607C14.4383 1.10852 17.6133 0 20.9936 0C24.2918 0 27.412 1.06746 30.0123 3.0929C30.1765 3.21607 30.2723 3.39398 30.2997 3.58557C30.327 3.77717 30.2723 3.98245 30.1491 4.13299C30.026 4.29721 29.848 4.39301 29.6564 4.42038C29.4649 4.44775 29.2596 4.39301 29.109 4.26984C26.7688 2.44968 23.9633 1.49171 20.9936 1.49171C17.9554 1.49171 15.0952 2.50443 12.7276 4.39301ZM7.81468 10.7704C7.73257 10.7704 7.65046 10.7568 7.56835 10.7294C7.37675 10.661 7.22621 10.5241 7.1441 10.3462C7.06199 10.1683 7.0483 9.963 7.11673 9.7714C7.801 7.85545 8.85477 6.13109 10.2644 4.6257C10.5518 4.32462 11.0171 4.31093 11.3181 4.59833C11.455 4.73518 11.5508 4.91309 11.5508 5.11837C11.5508 5.32365 11.4824 5.50156 11.3455 5.6521C10.0865 6.99327 9.12848 8.5534 8.51264 10.2778C8.41684 10.5652 8.12945 10.7704 7.81468 10.7704ZM8.29329 18.2563C7.92378 17.0383 7.74587 16.0256 7.74587 14.7392C7.74587 14.0541 7.78961 13.7955 7.88686 13.2206C7.89841 13.1523 7.91071 13.0796 7.92378 13.0011C7.99221 12.5906 7.7185 12.2074 7.32162 12.1389C6.91106 12.0705 6.52787 12.3442 6.45944 12.7411C6.44539 12.8268 6.43206 12.9071 6.41945 12.9829C6.30926 13.6462 6.25416 13.9778 6.25416 14.7392C6.25416 16.1761 6.45944 17.3257 6.87001 18.6806C6.9658 18.9953 7.2532 19.2143 7.58165 19.2143C7.64008 19.2143 7.69852 19.2043 7.76548 19.1929L7.7655 19.1929L7.80061 19.1869C8.19749 19.0638 8.41645 18.6532 8.29329 18.2563ZM33.4058 19.9532C33.5974 19.8848 33.8026 19.8985 33.9805 19.9806C34.1585 20.0627 34.2953 20.2133 34.3364 20.3912C34.4048 20.5828 34.3911 20.7881 34.309 20.966C33.1457 23.4567 31.2982 25.5779 28.9717 27.0833C26.5904 28.6298 23.826 29.4509 20.9657 29.4509C18.1329 29.4509 15.3958 28.6572 13.0282 27.1381C10.7291 25.66 8.88154 23.5936 7.69091 21.1302C7.6088 20.9523 7.59511 20.747 7.66354 20.5554C7.73197 20.3638 7.86882 20.2133 8.04673 20.1312C8.41623 19.9532 8.86785 20.1038 9.04576 20.4733C10.1132 22.6903 11.7828 24.5515 13.8493 25.879C15.9843 27.2339 18.4476 27.9592 20.9794 27.9592C23.5523 27.9592 26.043 27.2339 28.1779 25.838C30.2718 24.4831 31.9277 22.5808 32.9815 20.3364C33.0636 20.1585 33.2142 20.0217 33.4058 19.9532ZM34.4182 10.7294C34.3361 10.7568 34.2539 10.7704 34.1718 10.7704C33.8571 10.7704 33.5697 10.5652 33.4739 10.2778C32.858 8.5534 31.9001 6.99327 30.641 5.6521C30.5041 5.50156 30.4357 5.32365 30.4357 5.11837C30.4357 4.91309 30.5315 4.73518 30.6684 4.59833C30.9695 4.31093 31.4348 4.32462 31.7221 4.6257C33.1317 6.1174 34.1855 7.84176 34.8698 9.7714C34.9382 9.963 34.9245 10.1683 34.8424 10.3462C34.7466 10.5241 34.5961 10.661 34.4182 10.7294ZM34.2268 14.7392C34.2268 16.0256 34.0489 17.0383 33.6794 18.2563C33.5699 18.6532 33.7889 19.0638 34.1721 19.1869L34.2072 19.1929C34.2741 19.2043 34.3326 19.2143 34.391 19.2143C34.7195 19.2143 35.0069 18.9953 35.1027 18.6806C35.5132 17.3257 35.7185 16.1761 35.7185 14.7392C35.7185 13.9778 35.6634 13.6462 35.5532 12.983L35.5526 12.979L35.5515 12.9723C35.5394 12.8995 35.5266 12.8228 35.5132 12.7411C35.4448 12.3442 35.0616 12.0705 34.6511 12.1389C34.2542 12.2074 33.9805 12.5906 34.0489 13.0011C34.062 13.0796 34.0743 13.1523 34.0858 13.2206C34.1831 13.7955 34.2268 14.0541 34.2268 14.7392ZM29.2732 4.65303C29.0816 4.62566 28.8763 4.6804 28.7258 4.80357C26.3719 6.69216 24.018 7.39011 20.9936 7.39011C17.9965 7.39011 15.3962 6.76058 13.0423 4.91306C12.8918 4.78989 12.6865 4.73515 12.4949 4.76252C12.3033 4.78989 12.1254 4.88568 12.0022 5.03622C11.8791 5.18676 11.8243 5.39204 11.8517 5.58364C11.8791 5.77524 11.9749 5.95315 12.1254 6.07631C14.7393 8.12912 17.6543 8.86814 20.9936 8.86814C24.3602 8.86814 27.0288 8.0607 29.6564 5.96683C29.9849 5.70681 30.0259 5.24151 29.7796 4.91306C29.6564 4.7762 29.4785 4.6804 29.2732 4.65303ZM7.78681 11.1673C8.01946 10.8389 8.48476 10.7567 8.8269 10.9894C10.3049 12.0432 11.1945 13.7538 11.1945 15.5466C11.1945 17.1478 10.8386 18.5848 9.64802 19.6522C9.51117 19.7754 9.33326 19.8438 9.15535 19.8438C8.93638 19.8438 8.7311 19.7617 8.59424 19.5975C8.45739 19.4606 8.38896 19.2691 8.40265 19.0638C8.41634 18.8585 8.49845 18.6806 8.64899 18.5437C9.52485 17.7773 9.70276 16.7236 9.70276 15.5603C9.70276 14.2328 9.05955 12.9738 7.96472 12.2074C7.63627 11.9747 7.55416 11.5094 7.78681 11.1673ZM6.63741 19.5153C6.26791 19.6248 5.9942 19.6795 5.59733 19.6795C3.32555 19.6795 1.49171 17.832 1.49171 15.5739C1.49171 13.3022 3.33924 11.4683 5.59733 11.4683C5.67547 11.4683 5.73465 11.4661 5.78537 11.4642H5.78539H5.78541H5.78543H5.78544H5.78546H5.78547H5.78549C5.91237 11.4594 5.98638 11.4566 6.17211 11.4957C6.36371 11.5367 6.56899 11.4957 6.73321 11.3862C6.89744 11.2767 7.00692 11.1125 7.04798 10.9072C7.08903 10.7156 7.04798 10.5103 6.93849 10.3461C6.82901 10.1819 6.66479 10.0724 6.45951 10.0314C6.10368 9.96292 5.95315 9.96292 5.58364 9.96292C2.51811 9.97661 0 12.481 0 15.5739C0 18.6668 2.51811 21.1713 5.59733 21.1713C6.11737 21.1713 6.54162 21.0891 7.04798 20.9523C7.44485 20.8428 7.67751 20.4322 7.55434 20.0354C7.44485 19.6248 7.03429 19.4058 6.63741 19.5153ZM16.0121 13.1927C16.0121 12.0705 16.6006 11.1673 17.3259 11.1673C18.0512 11.1673 18.6397 12.0705 18.6397 13.1927C18.6397 14.3149 18.0512 15.2181 17.3259 15.2181C16.6006 15.2181 16.0121 14.3149 16.0121 13.1927ZM24.7296 15.2181C25.4552 15.2181 26.0434 14.3113 26.0434 13.1927C26.0434 12.0741 25.4552 11.1673 24.7296 11.1673C24.004 11.1673 23.4158 12.0741 23.4158 13.1927C23.4158 14.3113 24.004 15.2181 24.7296 15.2181ZM15.8749 23.0325L16.176 23.0052C16.8739 22.9504 17.394 22.3346 17.3392 21.6366C17.2708 20.9387 16.6686 20.4186 15.9707 20.4734L15.6696 20.5007C15.2347 20.5434 14.8689 20.7932 14.6682 21.1444C12.7057 21.0201 11.4365 20.4896 10.6609 19.9806C10.5651 19.9122 10.1271 19.748 9.81237 20.0901C9.77131 20.1449 9.73025 20.1996 9.6892 20.268C9.63446 20.3775 9.60709 20.487 9.5934 20.5965C9.57971 20.9113 9.79868 21.1576 10.004 21.2808C10.9274 21.8548 12.4653 22.4971 14.8252 22.6059C15.0804 22.8952 15.4608 23.065 15.8749 23.0325ZM20.9794 21.2945C19.0498 21.2945 17.6676 20.3365 17.5855 20.2681C17.2707 20.0355 17.1886 19.5975 17.4212 19.2828C17.6539 18.968 18.0918 18.8859 18.4066 19.1185L18.4192 19.1266C18.6353 19.2663 20.9241 20.7453 23.5249 19.1048C23.8534 18.8996 24.2913 18.9954 24.4966 19.3238C24.7019 19.6523 24.6061 20.0902 24.2776 20.2955C23.1007 21.0482 21.9648 21.2945 20.9794 21.2945ZM34.1995 11.1673C33.9669 10.8388 33.5016 10.7567 33.1594 10.9894C31.6677 12.0431 30.7782 13.7538 30.7919 15.5466C30.7919 17.1478 31.1477 18.5847 32.3383 19.6522C32.4752 19.7754 32.6531 19.8438 32.831 19.8438C33.0499 19.8438 33.2552 19.7617 33.3921 19.5975C33.5289 19.4606 33.5974 19.269 33.5837 19.0637C33.57 18.8584 33.4879 18.6805 33.3373 18.5437C32.4615 17.7773 32.2836 16.7235 32.2836 15.5603C32.2836 14.2328 32.9268 12.9737 34.0216 12.2074C34.3501 11.9747 34.4322 11.5094 34.1995 11.1673ZM35.3491 19.5153C35.7186 19.6248 35.9923 19.6795 36.3891 19.6795C38.6609 19.6795 40.4948 17.832 40.4948 15.5739C40.4948 13.3022 38.6472 11.4683 36.3891 11.4683C36.3109 11.4683 36.2517 11.4661 36.201 11.4642C36.0741 11.4594 36.0001 11.4566 35.8144 11.4957C35.6228 11.5367 35.4175 11.4957 35.2533 11.3862C35.089 11.2767 34.9796 11.1125 34.9385 10.9072C34.8974 10.7156 34.9385 10.5103 35.048 10.3461C35.1575 10.1819 35.3217 10.0724 35.527 10.0313C35.8828 9.96292 36.0333 9.96292 36.4028 9.96292C39.4957 9.96292 42.0002 12.481 42.0002 15.5602C42.0002 18.6531 39.4821 21.1576 36.4028 21.1576C35.8828 21.1576 35.4585 21.0755 34.9522 20.9386C34.5553 20.8291 34.3227 20.4186 34.4458 20.0217C34.5416 19.6248 34.9522 19.4058 35.3491 19.5153Z" fill="#909191"/>
</svg>
