<svg width="18" height="18" viewBox="0 0 18 18" fill="none" xmlns="http://www.w3.org/2000/svg">
<path fill-rule="evenodd" clip-rule="evenodd" d="M4.70317 4.875C4.41854 4.875 4.18754 4.644 4.18754 4.35938V3.15629H2.64067C2.16696 3.15629 1.78125 3.54188 1.78125 4.01558V6.25004H16.2188V4.01558C16.2188 3.54188 15.833 3.15629 15.3593 3.15629H13.8125V4.35938C13.8125 4.644 13.5815 4.875 13.2968 4.875C13.0122 4.875 12.7812 4.644 12.7812 4.35938V3.15629H5.21879V4.35938C5.21879 4.644 4.98779 4.875 4.70317 4.875ZM12.7812 2.12504H5.21879V1.26562C5.21879 0.980999 4.98779 0.75 4.70317 0.75C4.41854 0.75 4.18754 0.980999 4.18754 1.26562V2.12504H2.64067C1.59771 2.12504 0.75 2.97263 0.75 4.01558V6.76567V15.3593C0.75 16.4023 1.59771 17.25 2.64067 17.25H15.3593C16.4023 17.25 17.25 16.4023 17.25 15.3593V6.76567V4.01558C17.25 2.97263 16.4023 2.12504 15.3593 2.12504H13.8125V1.26562C13.8125 0.980999 13.5815 0.75 13.2968 0.75C13.0122 0.75 12.7812 0.980999 12.7812 1.26562V2.12504ZM16.2188 7.28129V15.3593C16.2188 15.833 15.833 16.2188 15.3593 16.2188H2.64067C2.16696 16.2188 1.78125 15.833 1.78125 15.3593V7.28129H16.2188Z" fill="url(#paint0_linear_319_3298)"/>
<defs>
<linearGradient id="paint0_linear_319_3298" x1="8.76855" y1="-6.654" x2="-7.11689" y2="9.23145" gradientUnits="userSpaceOnUse">
<stop stop-color="#16BAC5"/>
<stop offset="1" stop-color="#0184BB"/>
</linearGradient>
</defs>
</svg>
