<svg width="20" height="26" viewBox="0 0 20 26" fill="none" xmlns="http://www.w3.org/2000/svg">
<path fill-rule="evenodd" clip-rule="evenodd" d="M4.91911 0.333313H19.3578C19.5766 0.333313 19.7516 0.508327 19.7516 0.727095V25.2729C19.7516 25.4916 19.5766 25.6666 19.3578 25.6666H4.91911H0.893782C0.675014 25.6666 0.5 25.4916 0.5 25.2729V0.727095C0.5 0.508327 0.675014 0.333313 0.893782 0.333313H4.91911ZM2.07513 24.0915H3.69401V1.9522H2.07513V24.0915ZM5.3129 24.0915H18.1327V1.9522H5.3129V24.0915ZM16.5582 10.8771H6.93241C6.7574 10.8771 6.62614 10.7459 6.62614 10.5709V4.83913C6.62614 4.66412 6.7574 4.53286 6.93241 4.53286H16.5582C16.7332 4.53286 16.8645 4.66412 16.8645 4.83913V10.5709C16.8645 10.7459 16.7332 10.8771 16.5582 10.8771ZM15.4644 5.97673H8.02625V9.47701H15.4644V5.97673ZM8.94405 6.15175H8.63778V6.45803V7.28935V7.59562H8.94405H14.5445H14.8508V7.28935V6.45803V6.15175H14.5445H8.94405ZM8.63778 7.81549H8.94405H14.5445H14.8508V8.12177V8.90933V9.21561H14.5445H8.94405H8.63778V8.90933V8.12177V7.81549Z" fill="#909191"/>
<path fill-rule="evenodd" clip-rule="evenodd" d="M4.91911 0.333313H19.3578C19.5766 0.333313 19.7516 0.508327 19.7516 0.727095V25.2729C19.7516 25.4916 19.5766 25.6666 19.3578 25.6666H4.91911H0.893782C0.675014 25.6666 0.5 25.4916 0.5 25.2729V0.727095C0.5 0.508327 0.675014 0.333313 0.893782 0.333313H4.91911ZM2.07513 24.0915H3.69401V1.9522H2.07513V24.0915ZM5.3129 24.0915H18.1327V1.9522H5.3129V24.0915ZM16.5582 10.8771H6.93241C6.7574 10.8771 6.62614 10.7459 6.62614 10.5709V4.83913C6.62614 4.66412 6.7574 4.53286 6.93241 4.53286H16.5582C16.7332 4.53286 16.8645 4.66412 16.8645 4.83913V10.5709C16.8645 10.7459 16.7332 10.8771 16.5582 10.8771ZM15.4644 5.97673H8.02625V9.47701H15.4644V5.97673ZM8.94405 6.15175H8.63778V6.45803V7.28935V7.59562H8.94405H14.5445H14.8508V7.28935V6.45803V6.15175H14.5445H8.94405ZM8.63778 7.81549H8.94405H14.5445H14.8508V8.12177V8.90933V9.21561H14.5445H8.94405H8.63778V8.90933V8.12177V7.81549Z" fill="url(#paint0_linear_165_2585)"/>
<path fill-rule="evenodd" clip-rule="evenodd" d="M4.91911 0.333313H19.3578C19.5766 0.333313 19.7516 0.508327 19.7516 0.727095V25.2729C19.7516 25.4916 19.5766 25.6666 19.3578 25.6666H4.91911H0.893782C0.675014 25.6666 0.5 25.4916 0.5 25.2729V0.727095C0.5 0.508327 0.675014 0.333313 0.893782 0.333313H4.91911ZM2.07513 24.0915H3.69401V1.9522H2.07513V24.0915ZM5.3129 24.0915H18.1327V1.9522H5.3129V24.0915ZM16.5582 10.8771H6.93241C6.7574 10.8771 6.62614 10.7459 6.62614 10.5709V4.83913C6.62614 4.66412 6.7574 4.53286 6.93241 4.53286H16.5582C16.7332 4.53286 16.8645 4.66412 16.8645 4.83913V10.5709C16.8645 10.7459 16.7332 10.8771 16.5582 10.8771ZM15.4644 5.97673H8.02625V9.47701H15.4644V5.97673ZM8.94405 6.15175H8.63778V6.45803V7.28935V7.59562H8.94405H14.5445H14.8508V7.28935V6.45803V6.15175H14.5445H8.94405ZM8.63778 7.81549H8.94405H14.5445H14.8508V8.12177V8.90933V9.21561H14.5445H8.94405H8.63778V8.90933V8.12177V7.81549Z" fill="#909191"/>
<defs>
<linearGradient id="paint0_linear_165_2585" x1="9.85575" y1="-11.0344" x2="-13.643" y2="6.82295" gradientUnits="userSpaceOnUse">
<stop stop-color="#16BAC5"/>
<stop offset="1" stop-color="#0184BB"/>
</linearGradient>
</defs>
</svg>
