<svg width="20" height="20" viewBox="0 0 20 20" fill="none" xmlns="http://www.w3.org/2000/svg">
<path fill-rule="evenodd" clip-rule="evenodd" d="M0.571415 3.01462L1.46628 2.88432L1.33601 1.98919L3.896 4.54993L4.536 3.90974L1.98734 1.34901L2.8822 1.47931L3.01247 0.58419L0.769644 0.2556C0.520441 0.215943 0.28823 0.391568 0.254248 0.635178C0.248584 0.6805 0.248584 0.725823 0.254248 0.771146L0.571415 3.01462ZM19.7373 19.2293L19.4144 16.9858L18.5139 17.1161L18.6442 18.0113L16.0842 15.4505L15.4442 16.0907L18.0042 18.6514L17.1093 18.5211L16.979 19.4163L19.2219 19.7392C19.2445 19.7449 19.2672 19.7449 19.2842 19.7449C19.5334 19.7449 19.7373 19.5409 19.7373 19.2916C19.741 19.2805 19.7398 19.2668 19.7386 19.2524L19.7386 19.2524L19.7378 19.2427C19.7375 19.2383 19.7373 19.2338 19.7373 19.2293ZM1.34742 18.0113L3.9074 15.4505L4.54174 16.0964L1.98175 18.6571L2.87661 18.5268L3.00688 19.4219L0.764055 19.7449C0.747064 19.7505 0.724409 19.7505 0.701755 19.7505C0.684763 19.7505 0.662109 19.7505 0.639454 19.7449C0.390251 19.7052 0.220341 19.4786 0.254323 19.2293L0.582817 16.9858L1.47768 17.1161L1.34742 18.0113ZM16.0845 4.54993L18.6445 1.9892L18.5143 2.88432L19.4091 3.01463L19.732 0.771153C19.7546 0.629519 19.7036 0.487886 19.6017 0.38591C19.4998 0.283934 19.3582 0.238611 19.2166 0.255607L16.9737 0.578531L17.104 1.47365L17.9989 1.34335L15.4389 3.90409L16.0845 4.54993ZM4.51305 8.0396C5.59482 5.00864 8.92507 3.43368 11.9551 4.52142C14.9852 5.6035 16.5597 8.93472 15.478 11.9657C14.3962 14.9966 11.0659 16.5716 8.03587 15.4895C7.07304 15.1439 6.22349 14.5547 5.5665 13.7843L3.11978 13.7049C2.94987 13.6993 2.79695 13.5973 2.72332 13.4443C2.6497 13.2914 2.67235 13.1101 2.7743 12.9741L4.26385 11.0309C4.08261 10.0281 4.16757 9.0027 4.51305 8.0396ZM8.34171 14.6284C10.8904 15.5462 13.7109 14.2092 14.6227 11.6597C15.5346 9.11035 14.198 6.28901 11.655 5.38255C9.10631 4.46477 6.28579 5.80179 5.37393 8.35119C5.06243 9.22365 5.00013 10.1584 5.19836 11.0536C5.22668 11.1839 5.19269 11.3198 5.1134 11.4275L4.0373 12.8268L5.80437 12.8835C5.9403 12.8835 6.0649 12.9514 6.14419 13.0534C6.71056 13.7729 7.47516 14.3168 8.34171 14.6284Z" fill="url(#paint0_linear_319_3282)"/>
<defs>
<linearGradient id="paint0_linear_319_3282" x1="9.7215" y1="-8.50041" x2="-9.0527" y2="10.2634" gradientUnits="userSpaceOnUse">
<stop stop-color="#16BAC5"/>
<stop offset="1" stop-color="#0184BB"/>
</linearGradient>
</defs>
</svg>
