<svg width="26" height="26" viewBox="0 0 26 26" fill="none" xmlns="http://www.w3.org/2000/svg">
<path fill-rule="evenodd" clip-rule="evenodd" d="M19.375 10.2309C20.1076 10.2309 20.7979 10.5142 21.3194 11.0287C21.8398 11.5422 22.1282 12.2345 22.1307 12.9786C22.1332 13.7271 21.8334 14.4578 21.3084 14.9827L14.6201 21.671C14.1734 22.1177 13.5867 22.3409 13 22.3409C12.4133 22.3409 11.8266 22.1177 11.3799 21.671L4.66718 14.9578C4.14373 14.4349 3.85586 13.7396 3.85586 13C3.85586 12.2674 4.13925 11.5771 4.65373 11.0556C5.16722 10.5352 5.8595 10.2468 6.60358 10.2443H6.61305C7.35812 10.2443 8.08477 10.5436 8.60772 11.0666L10.2109 12.6698V3.03906C10.2109 1.50109 11.462 0.25 13 0.25C14.538 0.25 15.7891 1.50109 15.7891 3.03906V12.6698L17.4172 11.0422C17.9401 10.5187 18.6354 10.2309 19.375 10.2309ZM23.7578 25.75H24.9531C25.3932 25.75 25.75 25.3932 25.75 24.9531C25.75 24.5131 25.3932 24.1562 24.9531 24.1562H23.7578C23.3177 24.1562 22.9609 24.5131 22.9609 24.9531C22.9609 25.3932 23.3177 25.75 23.7578 25.75ZM2.24219 25.75H1.04688C0.606801 25.75 0.25 25.3932 0.25 24.9531C0.25 24.5131 0.606801 24.1562 1.04688 24.1562H2.24219C2.68226 24.1562 3.03906 24.5131 3.03906 24.9531C3.03906 25.3932 2.68226 25.75 2.24219 25.75ZM4.23438 24.9531C4.23438 25.3932 4.59118 25.75 5.03125 25.75H20.9688C21.4088 25.75 21.7656 25.3932 21.7656 24.9531C21.7656 24.5131 21.4088 24.1562 20.9688 24.1562H5.03125C4.59118 24.1562 4.23438 24.5131 4.23438 24.9531Z" fill="#1A051D"/>
<path fill-rule="evenodd" clip-rule="evenodd" d="M19.375 10.2309C20.1076 10.2309 20.7979 10.5142 21.3194 11.0287C21.8398 11.5422 22.1282 12.2345 22.1307 12.9786C22.1332 13.7271 21.8334 14.4578 21.3084 14.9827L14.6201 21.671C14.1734 22.1177 13.5867 22.3409 13 22.3409C12.4133 22.3409 11.8266 22.1177 11.3799 21.671L4.66718 14.9578C4.14373 14.4349 3.85586 13.7396 3.85586 13C3.85586 12.2674 4.13925 11.5771 4.65373 11.0556C5.16722 10.5352 5.8595 10.2468 6.60358 10.2443H6.61305C7.35812 10.2443 8.08477 10.5436 8.60772 11.0666L10.2109 12.6698V3.03906C10.2109 1.50109 11.462 0.25 13 0.25C14.538 0.25 15.7891 1.50109 15.7891 3.03906V12.6698L17.4172 11.0422C17.9401 10.5187 18.6354 10.2309 19.375 10.2309ZM23.7578 25.75H24.9531C25.3932 25.75 25.75 25.3932 25.75 24.9531C25.75 24.5131 25.3932 24.1562 24.9531 24.1562H23.7578C23.3177 24.1562 22.9609 24.5131 22.9609 24.9531C22.9609 25.3932 23.3177 25.75 23.7578 25.75ZM2.24219 25.75H1.04688C0.606801 25.75 0.25 25.3932 0.25 24.9531C0.25 24.5131 0.606801 24.1562 1.04688 24.1562H2.24219C2.68226 24.1562 3.03906 24.5131 3.03906 24.9531C3.03906 25.3932 2.68226 25.75 2.24219 25.75ZM4.23438 24.9531C4.23438 25.3932 4.59118 25.75 5.03125 25.75H20.9688C21.4088 25.75 21.7656 25.3932 21.7656 24.9531C21.7656 24.5131 21.4088 24.1562 20.9688 24.1562H5.03125C4.59118 24.1562 4.23438 24.5131 4.23438 24.9531Z" fill="url(#paint0_linear_109_6071)"/>
<path fill-rule="evenodd" clip-rule="evenodd" d="M19.375 10.2309C20.1076 10.2309 20.7979 10.5142 21.3194 11.0287C21.8398 11.5422 22.1282 12.2345 22.1307 12.9786C22.1332 13.7271 21.8334 14.4578 21.3084 14.9827L14.6201 21.671C14.1734 22.1177 13.5867 22.3409 13 22.3409C12.4133 22.3409 11.8266 22.1177 11.3799 21.671L4.66718 14.9578C4.14373 14.4349 3.85586 13.7396 3.85586 13C3.85586 12.2674 4.13925 11.5771 4.65373 11.0556C5.16722 10.5352 5.8595 10.2468 6.60358 10.2443H6.61305C7.35812 10.2443 8.08477 10.5436 8.60772 11.0666L10.2109 12.6698V3.03906C10.2109 1.50109 11.462 0.25 13 0.25C14.538 0.25 15.7891 1.50109 15.7891 3.03906V12.6698L17.4172 11.0422C17.9401 10.5187 18.6354 10.2309 19.375 10.2309ZM23.7578 25.75H24.9531C25.3932 25.75 25.75 25.3932 25.75 24.9531C25.75 24.5131 25.3932 24.1562 24.9531 24.1562H23.7578C23.3177 24.1562 22.9609 24.5131 22.9609 24.9531C22.9609 25.3932 23.3177 25.75 23.7578 25.75ZM2.24219 25.75H1.04688C0.606801 25.75 0.25 25.3932 0.25 24.9531C0.25 24.5131 0.606801 24.1562 1.04688 24.1562H2.24219C2.68226 24.1562 3.03906 24.5131 3.03906 24.9531C3.03906 25.3932 2.68226 25.75 2.24219 25.75ZM4.23438 24.9531C4.23438 25.3932 4.59118 25.75 5.03125 25.75H20.9688C21.4088 25.75 21.7656 25.3932 21.7656 24.9531C21.7656 24.5131 21.4088 24.1562 20.9688 24.1562H5.03125C4.59118 24.1562 4.23438 24.5131 4.23438 24.9531Z" fill="#909191"/>
<defs>
<linearGradient id="paint0_linear_109_6071" x1="12.6423" y1="-11.1925" x2="-11.9079" y2="13.3577" gradientUnits="userSpaceOnUse">
<stop stop-color="#16BAC5"/>
<stop offset="1" stop-color="#0184BB"/>
</linearGradient>
</defs>
</svg>
