<svg width="99" height="64" viewBox="0 0 99 64" fill="none" xmlns="http://www.w3.org/2000/svg">
<rect x="0.64879" y="18.4171" width="95" height="20" rx="2.5" transform="rotate(-10.3091 0.64879 18.4171)" fill="white" stroke="#909191" stroke-dasharray="2 2"/>
<path fill-rule="evenodd" clip-rule="evenodd" d="M35.5746 32.9934C35.7947 33.5954 35.4855 34.2617 34.8836 34.4821C34.2839 34.7018 33.6156 34.3948 33.3948 33.7911C31.6484 29.0197 34.6383 23.8482 39.5977 22.9461C44.5627 22.043 49.1641 25.8343 49.2222 30.8922C49.2294 31.5332 48.7159 32.0592 48.0748 32.0661C47.4338 32.0733 46.9084 31.5597 46.9009 30.9187C46.8595 27.2847 43.5555 24.5855 40.0131 25.2298C36.4599 25.8761 34.3256 29.5803 35.5746 32.9934ZM50.2358 38.3632C51.7585 37.231 53.9189 37.5307 55.0802 39.0549C57.147 37.518 60.1183 38.6988 60.5784 41.2284L62.7385 53.1038C63.3111 56.252 61.2158 59.279 58.0677 59.8516L48.7695 61.5429C47.1977 61.8288 45.5597 61.4472 44.2763 60.4964L35.0712 53.6758C33.494 52.5256 33.1631 50.2993 34.3647 48.738C35.5035 47.2581 37.6766 46.9609 39.2093 48.0746L40.8062 49.2353L37.6065 31.6444C37.2548 29.7107 38.5726 27.8745 40.5121 27.5782C42.3629 27.2938 44.1439 28.5786 44.483 30.4425L45.7549 37.4355C47.2699 36.5799 49.1802 36.9777 50.2358 38.3632ZM57.6523 57.5679C59.5411 57.2243 60.7983 55.408 60.4548 53.5192L58.2947 41.6438C58.1802 41.0143 57.5747 40.5952 56.9451 40.7097C56.3156 40.8242 55.8965 41.4297 56.011 42.0592L56.0802 42.4399C56.1949 43.0706 55.7767 43.6747 55.146 43.7894C54.5153 43.9041 53.9112 43.4859 53.7965 42.8552L53.4503 40.9521C53.3358 40.3226 52.7303 39.9035 52.1008 40.018C51.4713 40.1325 51.0521 40.738 51.1666 41.3675L51.5128 43.2706C51.6275 43.9013 51.2093 44.5055 50.5786 44.6202C49.9479 44.7349 49.3438 44.3167 49.229 43.686L48.606 40.2605C48.4914 39.6309 47.8859 39.2118 47.2564 39.3263C46.7009 39.4273 46.3101 39.9101 46.3042 40.4549L46.9667 44.0975C47.0818 44.7303 46.6596 45.3392 46.0218 45.4485C45.3854 45.571 44.7766 45.1493 44.6616 44.5168C44.1388 41.6424 44.0271 41.0068 43.8984 40.2741C43.7233 39.2771 43.5166 38.1002 42.1992 30.8579C42.0831 30.2191 41.4847 29.7772 40.8652 29.8723C40.2113 29.9725 39.7732 30.5874 39.89 31.2291L43.6079 51.6693C43.7948 52.6967 42.6284 53.4298 41.7837 52.8155L37.8444 49.9522C37.3194 49.5707 36.5835 49.6609 36.204 50.1536C35.8016 50.6771 35.9147 51.4193 36.4405 51.8017C36.4569 51.8137 38.7463 53.5099 41.039 55.2087C43.3386 56.9126 45.6417 58.619 45.6582 58.631C46.4283 59.2018 47.4109 59.4307 48.3541 59.2592L57.6523 57.5679Z" fill="#909191"/>
</svg>
