<svg width="15" height="20" viewBox="0 0 15 20" fill="none" xmlns="http://www.w3.org/2000/svg">
<path d="M14.0585 7.06671C13.9668 6.24171 13.1418 5.96671 12.6835 5.96671H11.8585V2.11671C11.8585 1.38337 11.3085 0.833374 10.5752 0.833374C9.84183 0.833374 9.29183 1.38337 9.29183 2.11671V5.96671H5.16683V2.11671C5.16683 1.38337 4.61683 0.833374 3.8835 0.833374C3.24183 0.833374 2.60016 1.38337 2.60016 2.11671V5.96671H1.9585C1.50016 5.96671 0.675163 6.15004 0.583496 7.06671C0.583496 7.15837 0.583496 7.43337 0.583496 7.61671C0.583496 8.16671 0.675163 9.81671 1.59183 11.5584C1.6835 11.7417 1.86683 12.0167 2.05016 12.2917C2.60016 13.1167 3.42516 14.3084 3.42516 15.4084C3.51683 16.325 3.51683 16.875 3.51683 17.15V17.2417C3.51683 17.8834 3.8835 18.525 4.61683 18.6167H5.35016V18.8917C5.35016 19.35 5.71683 19.625 6.0835 19.625H8.37516C8.8335 19.625 9.1085 19.2584 9.1085 18.8917V18.6167H9.84183C10.5752 18.525 10.9418 17.8834 10.9418 17.2417V17.15C10.9418 16.9667 10.9418 16.325 11.0335 15.4084C11.1252 14.4 11.9502 13.1167 12.4085 12.2917C12.5918 12.0167 12.7752 11.7417 12.8668 11.5584C13.8752 9.72504 13.8752 8.16671 13.8752 7.52504C14.0585 7.43337 14.0585 7.06671 14.0585 7.06671ZM3.70016 5.96671V2.11671C3.70016 2.02504 3.79183 1.93337 3.8835 1.93337C3.97516 1.93337 4.06683 2.02504 4.06683 2.11671V5.96671H3.70016ZM10.3918 5.96671V2.11671C10.3918 2.02504 10.4835 1.93337 10.5752 1.93337C10.6668 1.93337 10.7585 2.02504 10.7585 2.11671V5.96671H10.3918ZM12.9585 7.61671C12.9585 8.16671 12.8668 9.54171 12.0418 11.1C11.9502 11.2834 11.8585 11.4667 11.6752 11.65L11.5835 11.7417C10.9418 12.6584 10.0252 14.0334 10.0252 15.4084C9.9335 16.5084 9.93349 17.2417 9.93349 17.2417C9.93349 17.3334 9.93349 17.425 9.93349 17.5167H4.7085C4.7085 17.5167 4.61683 17.3334 4.61683 17.2417C4.61683 17.2417 4.61683 16.6 4.52516 15.4084C4.4335 14.0334 3.51683 12.6584 2.96683 11.7417L2.87516 11.65C2.69183 11.4667 2.60016 11.2834 2.5085 11.1C1.6835 9.54171 1.59183 8.16671 1.59183 7.61671V7.15837C1.59183 7.06671 1.86683 7.06671 1.86683 7.06671H12.5918C12.5918 7.06671 12.8668 7.06671 12.8668 7.15837C12.9585 7.15837 12.9585 7.34171 12.9585 7.61671Z" fill="url(#paint0_linear_319_3274)"/>
<defs>
<linearGradient id="paint0_linear_319_3274" x1="7.13198" y1="-7.59896" x2="-10.0034" y2="4.68833" gradientUnits="userSpaceOnUse">
<stop stop-color="#16BAC5"/>
<stop offset="1" stop-color="#0184BB"/>
</linearGradient>
</defs>
</svg>
