<svg width="16" height="18" viewBox="0 0 16 18" fill="none" xmlns="http://www.w3.org/2000/svg">
<path fill-rule="evenodd" clip-rule="evenodd" d="M14.4453 17.0722L14.446 0.927835H0.927835V17.0722H14.4453ZM0.462581 0H14.9099C15.1658 0 15.3739 0.208095 15.3739 0.463918V17.5361C15.3739 17.7919 15.1658 18 14.9099 18H0.463918C0.208132 18 0 17.7919 0 17.5361V0.463918C0 0.208837 0.207538 0.000742268 0.462581 0ZM3.19176 4.42867H3.7737V3.84762H3.19176V4.42867ZM2.72785 5.3565H4.23777C4.49333 5.35635 4.70139 5.1483 4.70154 4.89259V3.38355C4.70139 3.12799 4.49333 2.91993 4.23762 2.91979H2.72785C2.47202 2.91979 2.26393 3.12788 2.26393 3.3837V4.89259C2.26393 5.14841 2.47202 5.3565 2.72785 5.3565ZM3.19176 7.67H3.7737V7.08881H3.19176V7.67ZM4.23773 6.16082H2.72774C2.47206 6.16094 2.26408 6.36907 2.26408 6.62474V8.13392C2.26408 8.38956 2.47206 8.59769 2.72785 8.59784H4.23777C4.49333 8.59769 4.70139 8.38963 4.70154 8.13392V6.62463C4.70139 6.36899 4.49333 6.16094 4.23773 6.16082ZM3.19176 10.9112H3.7737V10.33H3.19176V10.9112ZM2.72785 11.839H4.23762C4.49322 11.839 4.70139 11.6311 4.70169 11.3753V9.86597C4.70157 9.61033 4.49348 9.40231 4.23777 9.40216H2.72785C2.47202 9.40216 2.26393 9.61026 2.26393 9.86608V11.3754C2.26408 11.631 2.47221 11.839 2.72785 11.839ZM3.7737 14.1524H3.19176V13.5713H3.7737V14.1524ZM4.23773 15.0802H2.72785C2.47202 15.0802 2.26393 14.8721 2.26393 14.6163V13.1074C2.26393 12.8516 2.47202 12.6435 2.72785 12.6435H4.23762C4.49333 12.6436 4.70139 12.8517 4.70154 13.1073V14.6163C4.70139 14.872 4.49333 15.0801 4.23773 15.0802ZM12.6445 4.41664H5.74739C5.49157 4.41664 5.28347 4.20854 5.28347 3.95272C5.28347 3.6969 5.49157 3.4888 5.74739 3.4888H12.6445C12.9003 3.4888 13.1085 3.6969 13.1085 3.95272C13.1085 4.20854 12.9003 4.41664 12.6445 4.41664ZM5.74739 7.84325H12.6445C12.9003 7.84325 13.1085 7.63515 13.1085 7.37933C13.1085 7.12351 12.9003 6.91541 12.6445 6.91541H5.74739C5.49157 6.91541 5.28347 7.12351 5.28347 7.37933C5.28347 7.63515 5.49157 7.84325 5.74739 7.84325ZM12.6445 11.27H5.74739C5.49157 11.27 5.28347 11.0619 5.28347 10.8061C5.28347 10.5503 5.49157 10.3422 5.74739 10.3422H12.6445C12.9003 10.3422 13.1085 10.5503 13.1085 10.8061C13.1085 11.0619 12.9003 11.27 12.6445 11.27ZM5.74739 14.6969H12.6445C12.9003 14.6969 13.1085 14.4888 13.1085 14.233C13.1085 13.9772 12.9003 13.7691 12.6445 13.7691H5.74739C5.49157 13.7691 5.28347 13.9772 5.28347 14.233C5.28347 14.4888 5.49157 14.6969 5.74739 14.6969Z" fill="#1A051D"/>
<path fill-rule="evenodd" clip-rule="evenodd" d="M14.4453 17.0722L14.446 0.927835H0.927835V17.0722H14.4453ZM0.462581 0H14.9099C15.1658 0 15.3739 0.208095 15.3739 0.463918V17.5361C15.3739 17.7919 15.1658 18 14.9099 18H0.463918C0.208132 18 0 17.7919 0 17.5361V0.463918C0 0.208837 0.207538 0.000742268 0.462581 0ZM3.19176 4.42867H3.7737V3.84762H3.19176V4.42867ZM2.72785 5.3565H4.23777C4.49333 5.35635 4.70139 5.1483 4.70154 4.89259V3.38355C4.70139 3.12799 4.49333 2.91993 4.23762 2.91979H2.72785C2.47202 2.91979 2.26393 3.12788 2.26393 3.3837V4.89259C2.26393 5.14841 2.47202 5.3565 2.72785 5.3565ZM3.19176 7.67H3.7737V7.08881H3.19176V7.67ZM4.23773 6.16082H2.72774C2.47206 6.16094 2.26408 6.36907 2.26408 6.62474V8.13392C2.26408 8.38956 2.47206 8.59769 2.72785 8.59784H4.23777C4.49333 8.59769 4.70139 8.38963 4.70154 8.13392V6.62463C4.70139 6.36899 4.49333 6.16094 4.23773 6.16082ZM3.19176 10.9112H3.7737V10.33H3.19176V10.9112ZM2.72785 11.839H4.23762C4.49322 11.839 4.70139 11.6311 4.70169 11.3753V9.86597C4.70157 9.61033 4.49348 9.40231 4.23777 9.40216H2.72785C2.47202 9.40216 2.26393 9.61026 2.26393 9.86608V11.3754C2.26408 11.631 2.47221 11.839 2.72785 11.839ZM3.7737 14.1524H3.19176V13.5713H3.7737V14.1524ZM4.23773 15.0802H2.72785C2.47202 15.0802 2.26393 14.8721 2.26393 14.6163V13.1074C2.26393 12.8516 2.47202 12.6435 2.72785 12.6435H4.23762C4.49333 12.6436 4.70139 12.8517 4.70154 13.1073V14.6163C4.70139 14.872 4.49333 15.0801 4.23773 15.0802ZM12.6445 4.41664H5.74739C5.49157 4.41664 5.28347 4.20854 5.28347 3.95272C5.28347 3.6969 5.49157 3.4888 5.74739 3.4888H12.6445C12.9003 3.4888 13.1085 3.6969 13.1085 3.95272C13.1085 4.20854 12.9003 4.41664 12.6445 4.41664ZM5.74739 7.84325H12.6445C12.9003 7.84325 13.1085 7.63515 13.1085 7.37933C13.1085 7.12351 12.9003 6.91541 12.6445 6.91541H5.74739C5.49157 6.91541 5.28347 7.12351 5.28347 7.37933C5.28347 7.63515 5.49157 7.84325 5.74739 7.84325ZM12.6445 11.27H5.74739C5.49157 11.27 5.28347 11.0619 5.28347 10.8061C5.28347 10.5503 5.49157 10.3422 5.74739 10.3422H12.6445C12.9003 10.3422 13.1085 10.5503 13.1085 10.8061C13.1085 11.0619 12.9003 11.27 12.6445 11.27ZM5.74739 14.6969H12.6445C12.9003 14.6969 13.1085 14.4888 13.1085 14.233C13.1085 13.9772 12.9003 13.7691 12.6445 13.7691H5.74739C5.49157 13.7691 5.28347 13.9772 5.28347 14.233C5.28347 14.4888 5.49157 14.6969 5.74739 14.6969Z" fill="url(#paint0_linear_319_3346)"/>
<defs>
<linearGradient id="paint0_linear_319_3346" x1="7.47128" y1="-8.07709" x2="-9.64502" y2="6.54199" gradientUnits="userSpaceOnUse">
<stop stop-color="#16BAC5"/>
<stop offset="1" stop-color="#0184BB"/>
</linearGradient>
</defs>
</svg>
