<svg width="26" height="26" viewBox="0 0 26 26" fill="none" xmlns="http://www.w3.org/2000/svg">
<path d="M10.7335 0.25C14.7879 0.25 18.311 2.56297 20.0544 5.93945C25.9829 8.9887 27.5788 16.7202 23.4288 21.8444L23.1972 22.1217L25.5272 24.4209C26.001 24.8883 25.6695 25.6969 25.0055 25.7001C25.0002 25.7001 15.2734 25.75 15.266 25.75C11.8958 25.75 8.80516 24.1468 6.84918 21.5151L6.61969 21.1942L0.993989 21.1676C0.372453 21.1644 0.0462793 20.459 0.38839 19.9862L0.472324 19.8884L2.80229 17.5893C1.15123 15.6854 0.250271 13.2778 0.250271 10.7333C0.250271 4.95243 4.9527 0.25 10.7335 0.25V0.25ZM20.9278 8.28748C22.5119 14.8917 17.4769 21.2176 10.7335 21.2176C10.6028 21.2176 11.3582 21.2218 8.51405 21.2038C10.2076 23.1353 12.6438 24.2562 15.266 24.2562C15.2713 24.2562 21.7703 24.2222 22.9932 24.2158L23.1908 24.2148L21.6322 22.6763C21.3379 22.3852 21.3358 21.9103 21.6279 21.617C25.3986 17.839 25.0607 11.664 20.9288 8.28854L20.9278 8.28748ZM15.2405 12.9995H6.27652C5.86429 12.9995 5.52961 13.3341 5.52961 13.7464C5.52961 14.1586 5.86429 14.4933 6.27652 14.4933H15.2405C15.6527 14.4933 15.9874 14.1586 15.9874 13.7464C15.9874 13.3341 15.6527 12.9995 15.2405 12.9995ZM15.2405 10.0118H6.27652C5.86429 10.0118 5.52961 10.3465 5.52961 10.7587C5.52961 11.171 5.86429 11.5057 6.27652 11.5057H15.2405C15.6527 11.5057 15.9874 11.171 15.9874 10.7587C15.9874 10.3465 15.6527 10.0118 15.2405 10.0118ZM15.2405 7.02316H6.27652C5.86429 7.02316 5.52961 7.35783 5.52961 7.77006C5.52961 8.18229 5.86429 8.51697 6.27652 8.51697H15.2405C15.6527 8.51697 15.9874 8.18229 15.9874 7.77006C15.9874 7.35783 15.6527 7.02316 15.2405 7.02316Z" fill="url(#paint0_linear_365_1348)"/>
<defs>
<linearGradient id="paint0_linear_365_1348" x1="12.6424" y1="-11.1925" x2="-11.9078" y2="13.3579" gradientUnits="userSpaceOnUse">
<stop stop-color="#16BAC5"/>
<stop offset="1" stop-color="#0184BB"/>
</linearGradient>
</defs>
</svg>
