<svg width="19" height="18" viewBox="0 0 19 18" fill="none" xmlns="http://www.w3.org/2000/svg">
<path fill-rule="evenodd" clip-rule="evenodd" d="M12.1401 11.7435L18.0136 7.66013L18.0255 16.3088L12.1401 11.7435ZM1.92505 16.8141L9.50742 10.9328L17.0625 16.7932L1.92505 16.8141ZM0.974418 7.68362L6.86253 11.7528L0.98633 16.3107L0.974418 7.68362ZM2.94329 5.64761V7.86085L1.34217 6.75429L2.94329 5.64761ZM3.91649 2.94839H15.0837V8.51186L11.3343 11.1185L9.80567 9.93267L9.80166 9.92986L9.79892 9.92799C9.6281 9.79982 9.38641 9.7951 9.20914 9.93267L7.66932 11.1271L3.91649 8.53339V2.94839ZM9.50059 1.11585L10.7367 1.97519H8.25736L9.50059 1.11585ZM16.0569 5.67381L17.6117 6.75436L16.0569 7.83528V5.67381ZM18.9855 6.74601C18.9855 6.71744 18.9791 6.67424 18.968 6.64942C18.9388 6.54351 18.8739 6.44676 18.7768 6.37919L16.0569 4.48857V2.46177C16.0569 2.19314 15.839 1.97523 15.5704 1.97523H12.4413L9.77895 0.124289C9.61259 0.00847111 9.39168 0.00795158 9.22472 0.123325L6.5452 1.97523H3.42987C3.16116 1.97523 2.94329 2.19314 2.94329 2.46177V4.46468L0.210262 6.35358C0.0758145 6.4465 0.00308008 6.59509 0.000779297 6.74694L0.000398968 6.75079C0.000199735 6.75232 0 6.75385 0 6.75548L0.0145469 17.3033C0.0146953 17.4323 0.066166 17.556 0.157492 17.6472C0.248707 17.7381 0.372244 17.7891 0.501088 17.7891H0.501756L18.5141 17.7644C18.7828 17.764 19.0004 17.5458 19 17.2771L18.9855 6.74601ZM12.7942 4.89468H6.20595C5.93731 4.89468 5.7194 5.11258 5.7194 5.38126C5.7194 5.64993 5.93731 5.86783 6.20595 5.86783H12.7942C13.0629 5.86783 13.2808 5.64993 13.2808 5.38126C13.2808 5.11258 13.0629 4.89468 12.7942 4.89468ZM6.20595 7.42488H12.7942C13.0629 7.42488 13.2808 7.64278 13.2808 7.91145C13.2808 8.18013 13.0629 8.39803 12.7942 8.39803H6.20595C5.93731 8.39803 5.7194 8.18013 5.7194 7.91145C5.7194 7.64278 5.93731 7.42488 6.20595 7.42488Z" fill="#1A051D"/>
<path fill-rule="evenodd" clip-rule="evenodd" d="M12.1401 11.7435L18.0136 7.66013L18.0255 16.3088L12.1401 11.7435ZM1.92505 16.8141L9.50742 10.9328L17.0625 16.7932L1.92505 16.8141ZM0.974418 7.68362L6.86253 11.7528L0.98633 16.3107L0.974418 7.68362ZM2.94329 5.64761V7.86085L1.34217 6.75429L2.94329 5.64761ZM3.91649 2.94839H15.0837V8.51186L11.3343 11.1185L9.80567 9.93267L9.80166 9.92986L9.79892 9.92799C9.6281 9.79982 9.38641 9.7951 9.20914 9.93267L7.66932 11.1271L3.91649 8.53339V2.94839ZM9.50059 1.11585L10.7367 1.97519H8.25736L9.50059 1.11585ZM16.0569 5.67381L17.6117 6.75436L16.0569 7.83528V5.67381ZM18.9855 6.74601C18.9855 6.71744 18.9791 6.67424 18.968 6.64942C18.9388 6.54351 18.8739 6.44676 18.7768 6.37919L16.0569 4.48857V2.46177C16.0569 2.19314 15.839 1.97523 15.5704 1.97523H12.4413L9.77895 0.124289C9.61259 0.00847111 9.39168 0.00795158 9.22472 0.123325L6.5452 1.97523H3.42987C3.16116 1.97523 2.94329 2.19314 2.94329 2.46177V4.46468L0.210262 6.35358C0.0758145 6.4465 0.00308008 6.59509 0.000779297 6.74694L0.000398968 6.75079C0.000199735 6.75232 0 6.75385 0 6.75548L0.0145469 17.3033C0.0146953 17.4323 0.066166 17.556 0.157492 17.6472C0.248707 17.7381 0.372244 17.7891 0.501088 17.7891H0.501756L18.5141 17.7644C18.7828 17.764 19.0004 17.5458 19 17.2771L18.9855 6.74601ZM12.7942 4.89468H6.20595C5.93731 4.89468 5.7194 5.11258 5.7194 5.38126C5.7194 5.64993 5.93731 5.86783 6.20595 5.86783H12.7942C13.0629 5.86783 13.2808 5.64993 13.2808 5.38126C13.2808 5.11258 13.0629 4.89468 12.7942 4.89468ZM6.20595 7.42488H12.7942C13.0629 7.42488 13.2808 7.64278 13.2808 7.91145C13.2808 8.18013 13.0629 8.39803 12.7942 8.39803H6.20595C5.93731 8.39803 5.7194 8.18013 5.7194 7.91145C5.7194 7.64278 5.93731 7.42488 6.20595 7.42488Z" fill="url(#paint0_linear_319_3333)"/>
<defs>
<linearGradient id="paint0_linear_319_3333" x1="9.23349" y1="-7.92871" x2="-7.81798" y2="10.3215" gradientUnits="userSpaceOnUse">
<stop stop-color="#16BAC5"/>
<stop offset="1" stop-color="#0184BB"/>
</linearGradient>
</defs>
</svg>
