<svg width="16" height="16" viewBox="0 0 16 16" fill="none" xmlns="http://www.w3.org/2000/svg">
<path fill-rule="evenodd" clip-rule="evenodd" d="M15.4976 5.9251C14.905 5.42777 14.0181 5.50559 13.5217 6.09716L12.1875 7.67604V3.09769C12.1875 2.71396 12.0279 2.34236 11.7497 2.07814L9.96912 0.386696C9.70665 0.137347 9.3627 0 9.00066 0H1.40625C0.630857 0 0 0.630857 0 1.40625V14.5938C0 15.3691 0.630857 16 1.40625 16H10.7813C11.5567 16 12.1875 15.3691 12.1875 14.5938V12.0324L15.671 7.90626C16.1706 7.31088 16.0931 6.42473 15.4976 5.9251ZM10.3841 2.07351C11.1115 2.76404 11.1308 2.7824 11.146 2.80371C11.1478 2.80623 11.1496 2.8088 11.1524 2.81253H9.37501V1.11534C9.81064 1.52916 10.1379 1.83983 10.3841 2.07351ZM11.25 14.5938C11.25 14.8522 11.0397 15.0625 10.7812 15.0625H1.40625C1.14777 15.0625 0.937489 14.8522 0.937489 14.5938V1.40625C0.937489 1.14777 1.14777 0.937489 1.40625 0.937489H8.43749V3.28123C8.43749 3.54011 8.64737 3.74999 8.90625 3.74999H11.25V8.78538L9.25713 11.1436C9.11754 11.3099 9.01707 11.5095 8.96663 11.7208L8.53099 13.5444C8.48977 13.7171 8.54962 13.8983 8.68562 14.0124C8.82175 14.1267 9.0106 14.154 9.17335 14.0834L10.8937 13.3377C11.0229 13.2817 11.1433 13.2057 11.25 13.1143V14.5938ZM10.1351 11.5572L10.8531 12.1597L10.6934 12.3488C10.647 12.4043 10.5873 12.4488 10.5208 12.4776L9.66071 12.8504L9.87855 11.9386C9.89537 11.8682 9.92884 11.8017 9.97431 11.7475L10.1351 11.5572ZM11.4579 11.4433L10.7401 10.8411L13.3311 7.7751L14.0474 8.37609L11.4579 11.4433ZM14.9537 7.30256L14.6522 7.65976L13.9363 7.05906L14.2389 6.70102C14.4042 6.50405 14.6986 6.47836 14.895 6.64324C15.0954 6.81133 15.1175 7.10737 14.9537 7.30256ZM7.03108 2.81207H2.34357C2.08469 2.81207 1.87481 3.02195 1.87481 3.28083C1.87481 3.53972 2.08469 3.74959 2.34357 3.74959H7.03108C7.28996 3.74959 7.49984 3.53972 7.49984 3.28083C7.49984 3.02195 7.28996 2.81207 7.03108 2.81207ZM2.34357 5.65583H9.84358C10.1025 5.65583 10.3123 5.86571 10.3123 6.12459C10.3123 6.38347 10.1025 6.59335 9.84358 6.59335H2.34357C2.08469 6.59335 1.87481 6.38347 1.87481 6.12459C1.87481 5.86571 2.08469 5.65583 2.34357 5.65583ZM9.84358 8.46835H2.34357C2.08469 8.46835 1.87481 8.67823 1.87481 8.93711C1.87481 9.19599 2.08469 9.40587 2.34357 9.40587H9.84358C10.1025 9.40587 10.3123 9.19599 10.3123 8.93711C10.3123 8.6782 10.1025 8.46835 9.84358 8.46835ZM2.34357 11.2808H7.03108C7.28996 11.2808 7.49984 11.4907 7.49984 11.7496C7.49984 12.0085 7.28996 12.2184 7.03108 12.2184H2.34357C2.08469 12.2184 1.87481 12.0085 1.87481 11.7496C1.87481 11.4907 2.08469 11.2808 2.34357 11.2808Z" fill="black"/>
<path fill-rule="evenodd" clip-rule="evenodd" d="M15.4976 5.9251C14.905 5.42777 14.0181 5.50559 13.5217 6.09716L12.1875 7.67604V3.09769C12.1875 2.71396 12.0279 2.34236 11.7497 2.07814L9.96912 0.386696C9.70665 0.137347 9.3627 0 9.00066 0H1.40625C0.630857 0 0 0.630857 0 1.40625V14.5938C0 15.3691 0.630857 16 1.40625 16H10.7813C11.5567 16 12.1875 15.3691 12.1875 14.5938V12.0324L15.671 7.90626C16.1706 7.31088 16.0931 6.42473 15.4976 5.9251ZM10.3841 2.07351C11.1115 2.76404 11.1308 2.7824 11.146 2.80371C11.1478 2.80623 11.1496 2.8088 11.1524 2.81253H9.37501V1.11534C9.81064 1.52916 10.1379 1.83983 10.3841 2.07351ZM11.25 14.5938C11.25 14.8522 11.0397 15.0625 10.7812 15.0625H1.40625C1.14777 15.0625 0.937489 14.8522 0.937489 14.5938V1.40625C0.937489 1.14777 1.14777 0.937489 1.40625 0.937489H8.43749V3.28123C8.43749 3.54011 8.64737 3.74999 8.90625 3.74999H11.25V8.78538L9.25713 11.1436C9.11754 11.3099 9.01707 11.5095 8.96663 11.7208L8.53099 13.5444C8.48977 13.7171 8.54962 13.8983 8.68562 14.0124C8.82175 14.1267 9.0106 14.154 9.17335 14.0834L10.8937 13.3377C11.0229 13.2817 11.1433 13.2057 11.25 13.1143V14.5938ZM10.1351 11.5572L10.8531 12.1597L10.6934 12.3488C10.647 12.4043 10.5873 12.4488 10.5208 12.4776L9.66071 12.8504L9.87855 11.9386C9.89537 11.8682 9.92884 11.8017 9.97431 11.7475L10.1351 11.5572ZM11.4579 11.4433L10.7401 10.8411L13.3311 7.7751L14.0474 8.37609L11.4579 11.4433ZM14.9537 7.30256L14.6522 7.65976L13.9363 7.05906L14.2389 6.70102C14.4042 6.50405 14.6986 6.47836 14.895 6.64324C15.0954 6.81133 15.1175 7.10737 14.9537 7.30256ZM7.03108 2.81207H2.34357C2.08469 2.81207 1.87481 3.02195 1.87481 3.28083C1.87481 3.53972 2.08469 3.74959 2.34357 3.74959H7.03108C7.28996 3.74959 7.49984 3.53972 7.49984 3.28083C7.49984 3.02195 7.28996 2.81207 7.03108 2.81207ZM2.34357 5.65583H9.84358C10.1025 5.65583 10.3123 5.86571 10.3123 6.12459C10.3123 6.38347 10.1025 6.59335 9.84358 6.59335H2.34357C2.08469 6.59335 1.87481 6.38347 1.87481 6.12459C1.87481 5.86571 2.08469 5.65583 2.34357 5.65583ZM9.84358 8.46835H2.34357C2.08469 8.46835 1.87481 8.67823 1.87481 8.93711C1.87481 9.19599 2.08469 9.40587 2.34357 9.40587H9.84358C10.1025 9.40587 10.3123 9.19599 10.3123 8.93711C10.3123 8.6782 10.1025 8.46835 9.84358 8.46835ZM2.34357 11.2808H7.03108C7.28996 11.2808 7.49984 11.4907 7.49984 11.7496C7.49984 12.0085 7.28996 12.2184 7.03108 12.2184H2.34357C2.08469 12.2184 1.87481 12.0085 1.87481 11.7496C1.87481 11.4907 2.08469 11.2808 2.34357 11.2808Z" fill="url(#paint0_linear_319_3243)"/>
<defs>
<linearGradient id="paint0_linear_319_3243" x1="7.77573" y1="-7.17964" x2="-7.62834" y2="8.22475" gradientUnits="userSpaceOnUse">
<stop stop-color="#16BAC5"/>
<stop offset="1" stop-color="#0184BB"/>
</linearGradient>
</defs>
</svg>
