<svg width="13" height="18" viewBox="0 0 13 18" fill="none" xmlns="http://www.w3.org/2000/svg">
<path fill-rule="evenodd" clip-rule="evenodd" d="M9.12831 10.3679H9.1347C9.38399 10.3679 9.58214 10.1634 9.59492 9.90767C9.60132 9.65838 9.39677 9.45383 9.14748 9.44744L8.98223 9.4445C8.31701 9.43266 7.62831 9.4204 6.9614 9.4027L6.75182 9.39802C5.96818 9.38053 5.2435 9.36434 4.75615 9.36434H3.107C2.63399 9.36434 2.2249 9.19176 2.00757 8.89773C1.80942 8.63565 1.77106 8.28409 1.89251 7.875C1.9053 7.84943 1.91169 7.81747 1.91169 7.78551C1.92447 7.68963 2.02035 7.20383 2.11623 6.73721L2.12431 6.69748C2.27698 5.94691 2.48292 4.93439 2.61481 4.19957C2.66595 3.87358 3.08143 3.64347 3.60558 3.63707C4.11694 3.67543 4.65388 3.68182 5.26112 3.68182H5.26751H5.50402C5.56794 3.68182 5.62547 3.66903 5.6766 3.64986C6.00899 3.59233 6.29663 3.46449 6.54592 3.25355C6.94936 2.93301 7.36714 2.61724 7.7786 2.30625L7.97135 2.16051C8.10477 2.05773 8.23973 1.95445 8.37535 1.85066L8.37554 1.85051C8.72063 1.5864 9.07003 1.31899 9.40955 1.0483C9.531 0.958807 9.67163 0.90767 9.74194 0.90767C9.78668 0.90767 9.86339 0.914062 9.92731 0.926846C9.9369 0.926846 9.94649 0.928444 9.95608 0.930042C9.96566 0.93164 9.97525 0.933238 9.98484 0.933238C10.0615 1.01634 10.1127 1.13778 10.0552 1.38707C9.99762 1.62997 10.1574 1.87287 10.4003 1.9304C10.6432 1.98793 10.8861 1.82812 10.9436 1.58523C11.1162 0.805398 10.7583 0.364347 10.4323 0.127841C10.3556 0.0767045 10.2661 0.0447443 10.1702 0.0447443C10.151 0.0447443 10.0999 0.0383523 10.0615 0.0319602L10.0279 0.0270706C9.94414 0.0148054 9.84304 0 9.74194 0C9.46069 0 9.12831 0.121449 8.85984 0.338778C8.85664 0.338778 8.85505 0.340376 8.85345 0.341975C8.85185 0.343572 8.85025 0.34517 8.84706 0.34517C8.38044 0.715909 7.89464 1.08665 7.42163 1.4446L7.18042 1.62677L7.18041 1.62677C6.7812 1.92795 6.37028 2.23797 5.97703 2.55682L5.97064 2.56321C5.79166 2.71023 5.57433 2.78693 5.28669 2.78693C4.68583 2.78693 4.1489 2.78054 3.66311 2.74219H3.62476C2.63399 2.74219 1.84777 3.28551 1.71993 4.05895C1.58569 4.78764 1.38115 5.81676 1.22774 6.57102C1.07433 7.3125 1.02959 7.56179 1.01041 7.67045C0.825041 8.33523 0.914529 8.96804 1.27888 9.45383C1.67518 9.98437 2.33995 10.2848 3.107 10.2848H4.75615C5.2308 10.2848 5.9472 10.3009 6.72312 10.3184L6.72335 10.3184L6.93583 10.3232C7.61341 10.3411 8.31349 10.3535 8.99385 10.3655H8.99388H8.99391L9.12831 10.3679ZM9.36486 15.2706H7.6454C7.39611 15.2706 7.19157 15.0661 7.19157 14.8168C7.19157 14.5675 7.39611 14.363 7.6454 14.363H9.36486H9.36487C9.63333 14.363 9.80591 14.363 10.0232 14.2926C10.0296 14.2894 10.0344 14.2878 10.0392 14.2862C10.044 14.2846 10.0488 14.2831 10.0552 14.2799C10.5218 14.1648 10.7583 13.8516 10.899 13.174V13.1676L10.9629 12.8864C11.2186 11.723 11.6532 9.72872 11.6532 9.72872C11.6564 9.72233 11.658 9.71434 11.6596 9.70635L11.6596 9.70634C11.6612 9.69835 11.6628 9.69036 11.666 9.68398C11.7363 9.47304 11.8258 8.95528 11.6596 8.73156L11.6573 8.72861C11.6294 8.69343 11.5483 8.59093 11.2441 8.59093C10.1145 8.59093 8.41778 8.55907 7.05735 8.53353L7.05708 8.53352L7.05684 8.53352L7.05661 8.53351L7.05094 8.53341L6.45691 8.52169C5.7254 8.50713 5.11914 8.49505 4.79455 8.49505H3.33716C3.08787 8.49505 2.88333 8.29051 2.88333 8.04122C2.88333 7.79193 3.08787 7.58738 3.33716 7.58738H4.79455C5.12506 7.58738 5.73869 7.59952 6.4778 7.61413L6.47791 7.61414L7.07012 7.62574L7.09852 7.62627C8.45511 7.65175 10.1333 7.68326 11.2505 7.68326C11.8897 7.68326 12.2285 7.96452 12.4011 8.20102C12.8549 8.82744 12.5992 9.76068 12.5353 9.95244C12.4906 10.1698 12.0879 11.9979 11.845 13.0909L11.7874 13.3658C11.6596 14.0114 11.3592 14.8935 10.2917 15.1684C9.94654 15.2706 9.66529 15.2706 9.36487 15.2706H9.36486ZM3.01121 18C2.74274 18 2.51263 17.9297 2.28891 17.7827C2.28571 17.7827 2.28411 17.7811 2.28252 17.7795C2.28092 17.7779 2.27932 17.7763 2.27612 17.7763C1.95013 17.5398 1.59217 17.0987 1.76476 16.3189C1.76476 16.3157 1.76636 16.3125 1.76796 16.3093C1.76955 16.3061 1.77115 16.3029 1.77115 16.2997C1.87342 15.9162 1.96291 15.5774 2.02683 15.2706H1.87982C1.3301 15.2706 0.812345 15.1108 0.39047 14.8104C0.371294 14.7976 0.352118 14.7784 0.332941 14.7592C0.198708 14.625 -0.012229 14.2479 0.000555106 13.8196C0.00694715 13.4872 0.147572 13.1932 0.396862 12.9694L0.403254 12.9631C0.850697 12.5795 1.39402 12.5731 1.45155 12.5731H4.74985C4.99913 12.5731 5.20368 12.7777 5.20368 13.027V13.1229C5.20368 13.1548 5.19729 13.1868 5.1909 13.2187L5.1909 13.2187L5.17172 13.2954C5.83649 12.7713 6.55879 12.522 7.42811 12.522H9.15396C9.2882 11.8381 9.44161 11.1797 9.57584 10.6108C9.63337 10.3679 9.87626 10.2145 10.1256 10.272C10.3685 10.3295 10.5219 10.5724 10.4643 10.8217C10.3173 11.4481 10.1511 12.1832 10.0041 12.9375C9.97854 13.3274 9.67172 13.4361 9.50553 13.4361H7.4345C6.73138 13.4361 6.18166 13.6342 5.65752 14.0817C5.65487 14.0843 5.65112 14.087 5.64674 14.0901C5.64053 14.0944 5.63304 14.0997 5.62556 14.1072C5.35709 14.299 5.07584 14.5355 4.83294 14.74L4.71149 14.8423C4.56448 14.9638 4.35354 14.9829 4.18734 14.8807C4.02115 14.7848 3.93806 14.5866 3.97641 14.4013C4.03394 14.12 4.10425 13.8452 4.17456 13.5767C4.18095 13.5447 4.18734 13.5192 4.20013 13.4872H1.45794C1.45794 13.4872 1.19587 13.4936 1.00411 13.6534C0.837913 13.8068 0.933794 14.0305 0.978538 14.1136C1.23422 14.2798 1.54743 14.3629 1.87982 14.3629H2.58294C2.71717 14.3629 2.84502 14.4204 2.9345 14.5291C3.02399 14.6314 3.05595 14.772 3.03038 14.8998C2.94729 15.3537 2.82584 15.8842 2.64686 16.5298C2.57655 16.843 2.67882 16.9517 2.79388 17.0348C2.86419 17.0795 2.91533 17.0987 3.00482 17.0987C3.07513 17.0987 3.21575 17.0476 3.3372 16.9581C3.67669 16.6874 4.02605 16.42 4.37111 16.1559L4.37121 16.1559L4.37132 16.1558L4.37179 16.1554L4.37351 16.1541C4.50843 16.0509 4.64267 15.9481 4.77541 15.8459L5.40823 15.3665C5.48174 15.3089 5.55525 15.253 5.62877 15.1971C5.70227 15.1411 5.77577 15.0852 5.84928 15.0277C6.04743 14.8743 6.33507 14.9062 6.48848 15.1044C6.64189 15.3025 6.60993 15.5902 6.41178 15.7436L6.41169 15.7437L6.41167 15.7437L6.41165 15.7437L6.41164 15.7437C6.26467 15.8587 6.11769 15.9737 5.96433 16.0888C5.85886 16.1687 5.7518 16.2502 5.64473 16.3317C5.53766 16.4132 5.4306 16.4947 5.32513 16.5746C4.85212 16.9325 4.36632 17.3033 3.8997 17.674C3.89651 17.674 3.89491 17.6756 3.89331 17.6772C3.89171 17.6788 3.89011 17.6804 3.88692 17.6804C3.62484 17.8785 3.29246 18 3.01121 18ZM11.0841 5.47794C11.1161 5.48433 11.1608 5.48433 11.1992 5.48433C11.6339 5.48433 12.3242 5.28618 12.5799 4.51274C12.7269 4.13561 12.6758 3.71374 12.452 3.38135C12.305 3.15763 11.9343 2.7805 11.1672 2.7805H10.6878C10.6878 2.56956 10.5408 2.38419 10.3299 2.33945C10.0806 2.28831 9.83769 2.44811 9.78655 2.69101C9.76976 2.76098 9.75419 2.8285 9.73931 2.89304C9.72021 2.97588 9.70224 3.05381 9.68428 3.12567C9.65232 3.2599 9.68428 3.40692 9.76737 3.51558C9.85047 3.62425 9.9847 3.68817 10.1253 3.68817H11.1608C11.4101 3.68817 11.6019 3.76487 11.6914 3.89272C11.7489 3.97581 11.7617 4.09726 11.7233 4.19314C11.7201 4.19953 11.7185 4.20433 11.7169 4.20912C11.7153 4.21392 11.7137 4.21871 11.7106 4.2251C11.5955 4.58306 11.2567 4.57666 11.1608 4.57027H11.1097H8.53371C8.54649 4.50635 8.55928 4.44882 8.57845 4.3849C8.64877 4.11644 8.71908 3.84158 8.77661 3.56033C8.81496 3.37496 8.73186 3.17681 8.56567 3.08093C8.39948 2.97865 8.18854 2.99783 8.04152 3.11928L7.92007 3.22155C7.67717 3.43249 7.39592 3.6626 7.12746 3.85436C7.12481 3.85701 7.12107 3.85966 7.11668 3.86276C7.11048 3.86715 7.10299 3.87244 7.0955 3.87993C6.80786 4.13561 6.46269 4.30181 6.07277 4.39129C6.06638 4.39449 6.05839 4.39609 6.0504 4.39769C6.04241 4.39928 6.03442 4.40088 6.02803 4.40408C5.99607 4.41047 5.95772 4.42325 5.93854 4.42965L5.93854 4.42965C5.89379 4.43604 5.84905 4.44243 5.8107 4.46161C5.68286 4.51274 5.51027 4.52553 5.45914 4.52553H4.80076H4.77519H4.74962H4.32774C4.07845 4.52553 3.87391 4.73007 3.87391 4.97936C3.87391 5.22865 4.07845 5.4332 4.32774 5.4332H4.74962H4.77519H4.80076H5.46553C5.49749 5.4332 5.79791 5.4332 6.09195 5.33092C6.13155 5.32527 6.18619 5.30959 6.26028 5.28833C6.26989 5.28558 6.27983 5.28272 6.2901 5.27979C6.7695 5.17112 7.20416 4.96019 7.5749 4.66615L7.55573 4.74286C7.55573 4.7455 7.55463 4.74925 7.55334 4.75364C7.55153 4.75984 7.54933 4.76733 7.54933 4.77482C7.54566 4.77849 7.5441 4.78005 7.54343 4.78193C7.54294 4.78332 7.54294 4.78488 7.54294 4.7876C7.52377 4.84513 7.4982 4.92823 7.4982 5.02411C7.4982 5.2734 7.70274 5.47794 7.95203 5.47794H11.0841Z" fill="url(#paint0_linear_319_3307)"/>
<defs>
<linearGradient id="paint0_linear_319_3307" x1="6.15482" y1="-8.07709" x2="-10.1565" y2="3.39969" gradientUnits="userSpaceOnUse">
<stop stop-color="#16BAC5"/>
<stop offset="1" stop-color="#0184BB"/>
</linearGradient>
</defs>
</svg>
