<svg width="29" height="30" viewBox="0 0 29 30" fill="none" xmlns="http://www.w3.org/2000/svg">
<path fill-rule="evenodd" clip-rule="evenodd" d="M11.9795 7.25713C12.1304 7.21869 12.2828 7.18385 12.4361 7.15265C12.564 7.12667 12.6143 6.97051 12.5242 6.87621C12.0961 6.42842 11.8291 5.82543 11.8174 5.16112L11.8173 5.15792C11.8169 5.15057 11.8169 5.1432 11.817 4.65117V4.649L11.817 3.74463C11.817 3.42137 12.1207 3.18433 12.4333 3.26162C13.0728 3.41891 13.6775 3.48759 14.2905 3.49513C14.3602 3.49603 14.4233 3.45388 14.4482 3.3888C14.4715 3.32808 14.5035 3.24342 14.5424 3.13762C14.6704 2.79 15.1202 2.69941 15.3728 2.96932C15.4617 3.06464 15.5376 3.16822 15.5992 3.27462C15.634 3.33479 15.7028 3.36658 15.7713 3.35443L16.332 3.2548C16.6369 3.20067 16.9165 3.4352 16.9165 3.74463V5.13813C16.9107 5.81147 16.6424 6.42327 16.2093 6.87639C16.1192 6.97063 16.1698 7.12667 16.2975 7.15271C16.4508 7.18385 16.6031 7.21869 16.754 7.25713C17.066 7.33575 17.3844 7.17983 17.5175 6.89435C18.3633 5.08173 17.9905 2.43021 16.3253 1.30614C15.2271 0.564661 13.5065 0.564661 12.4082 1.30614C10.7445 2.42926 10.3693 5.07987 11.2161 6.89435C11.3506 7.18289 11.6716 7.33527 11.9795 7.25713ZM15.358 7.72738C15.3492 7.7833 15.3384 7.85245 15.3251 7.93849C15.3187 7.98058 15.2963 8.01848 15.2627 8.04447L14.4683 8.65949C14.4084 8.70572 14.3251 8.70572 14.2652 8.65949L13.4708 8.04447C13.4372 8.01848 13.4149 7.98058 13.4084 7.93849C13.3952 7.85239 13.3843 7.78318 13.3755 7.72732C13.3564 7.60553 13.4722 7.50608 13.5895 7.5438C14.0938 7.70558 14.6395 7.7057 15.144 7.54386C15.2614 7.5062 15.3771 7.60559 15.358 7.72738ZM2.12287 21.9625C1.82074 21.9224 1.55927 22.1589 1.55927 22.4561V23.5963C1.44348 23.4736 1.37253 23.3085 1.37253 23.1269V21.5016C1.37253 20.2639 2.37584 19.2606 3.61349 19.2606H4.60949C5.84715 19.2606 6.85046 20.2639 6.85046 21.5016C6.85046 21.4808 6.85081 23.1335 6.8498 23.157C6.84459 23.2771 6.66371 23.2712 6.66371 23.1509V22.4561C6.66371 22.1595 6.40326 21.9244 6.10365 21.962C6.06054 21.9674 5.97731 21.9699 5.90367 21.9255C5.76278 21.8408 5.75111 21.6172 5.75069 21.6045C5.74979 21.193 5.27679 20.9595 4.94976 21.21C4.12715 21.8407 3.1151 22.0939 2.12287 21.9625ZM22.9909 26.0521C22.7022 26.0521 22.4147 26.1122 22.1471 26.2334C22.0774 26.2649 21.9948 26.2444 21.9484 26.1836C20.5113 24.3048 20.8237 21.0897 22.6789 19.8373C23.7772 19.0957 25.4978 19.0957 26.5961 19.8373C28.4248 21.0718 28.7854 24.2784 27.3267 26.1836C27.2802 26.2442 27.1976 26.2649 27.128 26.2333C26.8569 26.1103 26.5693 26.0521 26.2841 26.0521C26.0103 26.0521 25.9775 25.8205 26.1033 25.7318C26.7527 25.274 27.1798 24.5207 27.1873 23.6692V22.483C27.1873 22.184 26.925 21.9521 26.6277 21.9894C26.5846 21.9948 26.5015 21.9973 26.4279 21.953C26.2871 21.8684 26.2756 21.6449 26.2752 21.6322C26.2743 21.2206 25.8011 20.9882 25.475 21.2381C24.653 21.8683 23.6416 22.1211 22.6507 21.9899C22.3533 21.9503 22.0877 22.1818 22.0877 22.483L22.0877 23.1737C22.0876 23.6719 22.0876 23.6804 22.088 23.6888L22.0881 23.6922C22.103 24.5344 22.5282 25.2781 23.1717 25.7316C23.2985 25.821 23.2642 26.0521 22.9909 26.0521ZM23.912 23.1049C23.729 23.1049 23.5803 23.2537 23.5803 23.4366C23.5803 23.6195 23.729 23.7683 23.912 23.7683C24.0948 23.7683 24.2436 23.6195 24.2436 23.4366C24.2436 23.2537 24.0949 23.1049 23.912 23.1049ZM25.363 23.1049C25.1801 23.1049 25.0313 23.2537 25.0313 23.4366C25.0313 23.6195 25.1801 23.7683 25.363 23.7683C25.5459 23.7683 25.6947 23.6195 25.6947 23.4366C25.6947 23.2537 25.5459 23.1049 25.363 23.1049ZM26.0247 23.484C26.0015 23.8165 25.7281 24.0834 25.3952 24.0992C25.1005 24.1132 24.8449 23.9337 24.7448 23.6769C24.7061 23.5778 24.569 23.5778 24.5303 23.6769C24.4301 23.9337 24.1745 24.1132 23.8798 24.0992C23.5469 24.0834 23.2735 23.8164 23.2502 23.484C23.2232 23.0969 23.5305 22.7732 23.912 22.7732C24.1936 22.7732 24.4348 22.9496 24.5309 23.1978C24.5684 23.2949 24.7066 23.2949 24.7441 23.1978C24.8402 22.9496 25.0814 22.7732 25.363 22.7732C25.7445 22.7732 26.0517 23.0969 26.0247 23.484ZM26.8556 23.6638V22.483C26.8556 22.385 26.7699 22.3061 26.669 22.3184C26.5836 22.3292 26.4161 22.3329 26.2569 22.2374C25.9451 22.0496 25.9435 21.6383 25.9435 21.6341C25.9443 21.4969 25.7862 21.4176 25.6767 21.5015C24.7786 22.19 23.6777 22.4604 22.607 22.3186C22.5075 22.3055 22.4194 22.3827 22.4194 22.483V23.6719C22.4194 24.8306 23.3856 25.8645 24.6375 25.8645C25.8548 25.8645 26.8461 24.879 26.8556 23.6638ZM25.7186 26.0925C25.7357 26.1166 25.7544 26.1395 25.7745 26.1611C25.8405 26.2324 25.8311 26.3452 25.7542 26.4047L24.739 27.1906C24.6791 27.2368 24.5958 27.2368 24.5359 27.1906L23.5207 26.4047C23.444 26.3452 23.4343 26.2327 23.5005 26.1613C23.5205 26.1396 23.5393 26.1166 23.5565 26.0925C23.5993 26.0323 23.6783 26.0099 23.7476 26.0357C24.3312 26.2542 24.9681 26.2452 25.5275 26.0357C25.5967 26.0099 25.6757 26.0323 25.7186 26.0925ZM26.3857 26.3873C26.3456 26.3849 26.3058 26.3971 26.274 26.4218L24.8677 27.5105C24.8271 27.5419 24.8033 27.5904 24.8033 27.6416V29.0752C24.8033 29.1668 24.8776 29.241 24.9692 29.241H27.8299C27.9215 29.241 27.9958 29.1668 27.9958 29.0752V28.0955C27.9957 27.1836 27.2845 26.4395 26.3857 26.3873ZM23.0011 26.4217L24.4073 27.5105C24.4479 27.5419 24.4716 27.5903 24.4716 27.6416V29.0752C24.4716 29.1667 24.3974 29.241 24.3058 29.241H21.4451C21.3535 29.241 21.2793 29.1667 21.2793 29.0752V28.0955C21.2793 27.1833 21.9909 26.4395 22.8893 26.3872C22.9295 26.3849 22.9692 26.3971 23.0011 26.4217ZM6.33171 23.638V22.4561C6.33171 22.358 6.24603 22.279 6.14496 22.2914C6.05946 22.3021 5.89181 22.3058 5.73249 22.2102C5.42037 22.0222 5.41869 21.6105 5.41869 21.6063C5.41965 21.4689 5.26128 21.3897 5.15171 21.4736C4.25594 22.1603 3.15438 22.434 2.07904 22.2915C1.97959 22.2784 1.89128 22.3556 1.89128 22.4561L1.89127 22.4614V22.4626C1.89127 22.5575 1.89117 23.651 1.89146 23.6556C1.91038 24.8639 2.89907 25.8408 4.11146 25.8408C5.32996 25.8408 6.32219 24.8543 6.33171 23.638ZM3.19932 27.7939L3.34751 27.6232C3.40128 27.5613 3.50271 27.6066 3.49253 27.6879L3.31907 29.0751C3.30871 29.1581 3.23812 29.2205 3.15436 29.2205H0.916031C0.824304 29.2205 0.75 29.1462 0.75 29.0544V28.0739C0.75 27.1271 1.51651 26.3605 2.46329 26.3605C2.50359 26.3605 2.54328 26.3571 2.58214 26.3504C2.59705 26.3478 2.61142 26.357 2.61465 26.3718L2.91187 27.7208C2.94115 27.8536 3.10993 27.8968 3.19932 27.7939ZM4.67257 26.1107C4.30435 26.1936 3.91786 26.1934 3.55041 26.1107C3.4712 26.0929 3.4157 26.1867 3.47006 26.2469L3.98803 26.8225C4.05401 26.8959 4.16897 26.8959 4.23495 26.8225L4.75292 26.2469C4.80729 26.1867 4.75178 26.0929 4.67257 26.1107ZM7.18246 22.6142V23.1269C7.18246 23.4951 6.98577 23.8181 6.69197 23.9966C6.65287 24.0203 6.62623 24.06 6.61761 24.1049C6.55719 24.4186 6.4381 24.7159 6.27111 24.9798C6.22866 25.0469 6.23956 25.1354 6.29812 25.189C6.74755 25.5999 7.18258 25.5946 7.54979 25.5901C7.58715 25.5897 7.62381 25.5892 7.65971 25.5892C7.75138 25.5892 7.82568 25.5149 7.82568 25.4233V23.3276C7.82568 22.9979 7.68534 22.7006 7.46117 22.4921C7.35519 22.3936 7.18246 22.4695 7.18246 22.6142ZM5.64084 26.3504C5.6797 26.3571 5.71939 26.3605 5.75963 26.3605C6.70642 26.3605 7.47292 27.1271 7.47292 28.0738V29.0545C7.47292 29.1461 7.39862 29.2205 7.30695 29.2205H5.06856C4.98486 29.2205 4.91421 29.1582 4.90385 29.0751L4.73046 27.688C4.72028 27.6066 4.8217 27.5613 4.87547 27.6232L5.02366 27.7938C5.11287 27.8966 5.28178 27.8538 5.31111 27.7208L5.60833 26.3717C5.61156 26.357 5.62593 26.3478 5.64084 26.3504ZM5.09341 27.1658L5.30411 26.2095C5.31022 26.1818 5.27501 26.1631 5.25573 26.1845L4.69926 26.8028C4.67118 26.834 4.67076 26.8812 4.69824 26.9128L4.94971 27.2023C4.99444 27.2539 5.07868 27.2324 5.09341 27.1658ZM4.16095 27.3668C4.25891 27.3363 4.36033 27.4034 4.37303 27.5052L4.56414 29.0339C4.57648 29.133 4.49924 29.2205 4.39943 29.2205H3.82356C3.72375 29.2205 3.64652 29.133 3.65885 29.0339L3.84997 27.5052C3.86266 27.4036 3.96391 27.336 4.06168 27.3667C4.0915 27.3761 4.13108 27.3761 4.16095 27.3668ZM2.96725 26.1846C2.94755 26.1626 2.91288 26.1825 2.91887 26.2095L3.12956 27.1658C3.14429 27.2325 3.2286 27.2538 3.27332 27.2023L3.52473 26.9128C3.55221 26.8812 3.5518 26.8341 3.52371 26.8029L2.96725 26.1846ZM11.0085 10.5441V9.56436C11.0085 8.61847 11.7744 7.85268 12.7202 7.85268C12.774 7.85268 12.8265 7.84657 12.8768 7.83508C12.9707 7.81352 13.0632 7.87597 13.0779 7.97129L13.4704 10.5188C13.4859 10.6193 13.4081 10.7099 13.3065 10.7099H11.1744C11.0828 10.7099 11.0085 10.6357 11.0085 10.5441ZM14.9129 8.73477L14.4683 9.07899C14.4085 9.12527 14.325 9.12527 14.2653 9.07899L13.8206 8.73477C13.7021 8.64304 13.5323 8.74303 13.5552 8.89116L13.8138 10.5693C13.8262 10.6502 13.8958 10.7099 13.9777 10.7099H14.7559C14.8377 10.7099 14.9073 10.6502 14.9197 10.5693L15.1784 8.89116C15.2012 8.74303 15.0314 8.64304 14.9129 8.73477ZM17.5592 10.7099H15.4271C15.3254 10.7099 15.2477 10.6192 15.2632 10.5188L15.6556 7.97131C15.6703 7.87623 15.7626 7.81348 15.8563 7.83503C15.9072 7.84671 15.9598 7.8527 16.0133 7.8527C16.9593 7.8527 17.725 8.61848 17.725 9.56437V10.544C17.725 10.6356 17.6508 10.7099 17.5592 10.7099ZM16.5849 5.13272V3.7446C16.5849 3.64144 16.4914 3.56342 16.39 3.58127L15.5655 3.7279C15.4962 3.74017 15.4291 3.70054 15.4041 3.63473C15.3422 3.47176 15.2496 3.32321 15.1305 3.1961C15.0462 3.10563 14.8962 3.13652 14.8537 3.25208C14.789 3.42841 14.73 3.58192 14.6694 3.73436C14.6479 3.78831 14.5963 3.82459 14.5382 3.82579C13.7956 3.8401 13.0665 3.75885 12.3541 3.58354C12.2501 3.55786 12.1486 3.63671 12.1486 3.7446V5.1408C12.1486 6.31032 13.1247 7.33339 14.3668 7.33339C15.584 7.33339 16.5754 6.34792 16.5849 5.13272ZM4.79665 17.3907C4.79665 17.7739 4.54116 18.0294 4.15797 18.0294C3.77478 18.0294 3.5193 17.7739 3.5193 17.3907V14.8362C3.5193 14.453 3.77478 14.1975 4.15797 14.1975H13.7378V12.2815C13.7378 11.8983 13.9933 11.6428 14.3765 11.6428C14.7597 11.6428 15.0151 11.8983 15.0151 12.2815V14.1975H24.5949C24.9781 14.1975 25.2336 14.453 25.2336 14.8362V17.3907C25.2336 17.7739 24.9781 18.0294 24.5949 18.0294C24.2117 18.0294 23.9563 17.7739 23.9563 17.3907V15.4748H4.79665V17.3907Z" fill="#1A051D"/>
<path fill-rule="evenodd" clip-rule="evenodd" d="M11.9795 7.25713C12.1304 7.21869 12.2828 7.18385 12.4361 7.15265C12.564 7.12667 12.6143 6.97051 12.5242 6.87621C12.0961 6.42842 11.8291 5.82543 11.8174 5.16112L11.8173 5.15792C11.8169 5.15057 11.8169 5.1432 11.817 4.65117V4.649L11.817 3.74463C11.817 3.42137 12.1207 3.18433 12.4333 3.26162C13.0728 3.41891 13.6775 3.48759 14.2905 3.49513C14.3602 3.49603 14.4233 3.45388 14.4482 3.3888C14.4715 3.32808 14.5035 3.24342 14.5424 3.13762C14.6704 2.79 15.1202 2.69941 15.3728 2.96932C15.4617 3.06464 15.5376 3.16822 15.5992 3.27462C15.634 3.33479 15.7028 3.36658 15.7713 3.35443L16.332 3.2548C16.6369 3.20067 16.9165 3.4352 16.9165 3.74463V5.13813C16.9107 5.81147 16.6424 6.42327 16.2093 6.87639C16.1192 6.97063 16.1698 7.12667 16.2975 7.15271C16.4508 7.18385 16.6031 7.21869 16.754 7.25713C17.066 7.33575 17.3844 7.17983 17.5175 6.89435C18.3633 5.08173 17.9905 2.43021 16.3253 1.30614C15.2271 0.564661 13.5065 0.564661 12.4082 1.30614C10.7445 2.42926 10.3693 5.07987 11.2161 6.89435C11.3506 7.18289 11.6716 7.33527 11.9795 7.25713ZM15.358 7.72738C15.3492 7.7833 15.3384 7.85245 15.3251 7.93849C15.3187 7.98058 15.2963 8.01848 15.2627 8.04447L14.4683 8.65949C14.4084 8.70572 14.3251 8.70572 14.2652 8.65949L13.4708 8.04447C13.4372 8.01848 13.4149 7.98058 13.4084 7.93849C13.3952 7.85239 13.3843 7.78318 13.3755 7.72732C13.3564 7.60553 13.4722 7.50608 13.5895 7.5438C14.0938 7.70558 14.6395 7.7057 15.144 7.54386C15.2614 7.5062 15.3771 7.60559 15.358 7.72738ZM2.12287 21.9625C1.82074 21.9224 1.55927 22.1589 1.55927 22.4561V23.5963C1.44348 23.4736 1.37253 23.3085 1.37253 23.1269V21.5016C1.37253 20.2639 2.37584 19.2606 3.61349 19.2606H4.60949C5.84715 19.2606 6.85046 20.2639 6.85046 21.5016C6.85046 21.4808 6.85081 23.1335 6.8498 23.157C6.84459 23.2771 6.66371 23.2712 6.66371 23.1509V22.4561C6.66371 22.1595 6.40326 21.9244 6.10365 21.962C6.06054 21.9674 5.97731 21.9699 5.90367 21.9255C5.76278 21.8408 5.75111 21.6172 5.75069 21.6045C5.74979 21.193 5.27679 20.9595 4.94976 21.21C4.12715 21.8407 3.1151 22.0939 2.12287 21.9625ZM22.9909 26.0521C22.7022 26.0521 22.4147 26.1122 22.1471 26.2334C22.0774 26.2649 21.9948 26.2444 21.9484 26.1836C20.5113 24.3048 20.8237 21.0897 22.6789 19.8373C23.7772 19.0957 25.4978 19.0957 26.5961 19.8373C28.4248 21.0718 28.7854 24.2784 27.3267 26.1836C27.2802 26.2442 27.1976 26.2649 27.128 26.2333C26.8569 26.1103 26.5693 26.0521 26.2841 26.0521C26.0103 26.0521 25.9775 25.8205 26.1033 25.7318C26.7527 25.274 27.1798 24.5207 27.1873 23.6692V22.483C27.1873 22.184 26.925 21.9521 26.6277 21.9894C26.5846 21.9948 26.5015 21.9973 26.4279 21.953C26.2871 21.8684 26.2756 21.6449 26.2752 21.6322C26.2743 21.2206 25.8011 20.9882 25.475 21.2381C24.653 21.8683 23.6416 22.1211 22.6507 21.9899C22.3533 21.9503 22.0877 22.1818 22.0877 22.483L22.0877 23.1737C22.0876 23.6719 22.0876 23.6804 22.088 23.6888L22.0881 23.6922C22.103 24.5344 22.5282 25.2781 23.1717 25.7316C23.2985 25.821 23.2642 26.0521 22.9909 26.0521ZM23.912 23.1049C23.729 23.1049 23.5803 23.2537 23.5803 23.4366C23.5803 23.6195 23.729 23.7683 23.912 23.7683C24.0948 23.7683 24.2436 23.6195 24.2436 23.4366C24.2436 23.2537 24.0949 23.1049 23.912 23.1049ZM25.363 23.1049C25.1801 23.1049 25.0313 23.2537 25.0313 23.4366C25.0313 23.6195 25.1801 23.7683 25.363 23.7683C25.5459 23.7683 25.6947 23.6195 25.6947 23.4366C25.6947 23.2537 25.5459 23.1049 25.363 23.1049ZM26.0247 23.484C26.0015 23.8165 25.7281 24.0834 25.3952 24.0992C25.1005 24.1132 24.8449 23.9337 24.7448 23.6769C24.7061 23.5778 24.569 23.5778 24.5303 23.6769C24.4301 23.9337 24.1745 24.1132 23.8798 24.0992C23.5469 24.0834 23.2735 23.8164 23.2502 23.484C23.2232 23.0969 23.5305 22.7732 23.912 22.7732C24.1936 22.7732 24.4348 22.9496 24.5309 23.1978C24.5684 23.2949 24.7066 23.2949 24.7441 23.1978C24.8402 22.9496 25.0814 22.7732 25.363 22.7732C25.7445 22.7732 26.0517 23.0969 26.0247 23.484ZM26.8556 23.6638V22.483C26.8556 22.385 26.7699 22.3061 26.669 22.3184C26.5836 22.3292 26.4161 22.3329 26.2569 22.2374C25.9451 22.0496 25.9435 21.6383 25.9435 21.6341C25.9443 21.4969 25.7862 21.4176 25.6767 21.5015C24.7786 22.19 23.6777 22.4604 22.607 22.3186C22.5075 22.3055 22.4194 22.3827 22.4194 22.483V23.6719C22.4194 24.8306 23.3856 25.8645 24.6375 25.8645C25.8548 25.8645 26.8461 24.879 26.8556 23.6638ZM25.7186 26.0925C25.7357 26.1166 25.7544 26.1395 25.7745 26.1611C25.8405 26.2324 25.8311 26.3452 25.7542 26.4047L24.739 27.1906C24.6791 27.2368 24.5958 27.2368 24.5359 27.1906L23.5207 26.4047C23.444 26.3452 23.4343 26.2327 23.5005 26.1613C23.5205 26.1396 23.5393 26.1166 23.5565 26.0925C23.5993 26.0323 23.6783 26.0099 23.7476 26.0357C24.3312 26.2542 24.9681 26.2452 25.5275 26.0357C25.5967 26.0099 25.6757 26.0323 25.7186 26.0925ZM26.3857 26.3873C26.3456 26.3849 26.3058 26.3971 26.274 26.4218L24.8677 27.5105C24.8271 27.5419 24.8033 27.5904 24.8033 27.6416V29.0752C24.8033 29.1668 24.8776 29.241 24.9692 29.241H27.8299C27.9215 29.241 27.9958 29.1668 27.9958 29.0752V28.0955C27.9957 27.1836 27.2845 26.4395 26.3857 26.3873ZM23.0011 26.4217L24.4073 27.5105C24.4479 27.5419 24.4716 27.5903 24.4716 27.6416V29.0752C24.4716 29.1667 24.3974 29.241 24.3058 29.241H21.4451C21.3535 29.241 21.2793 29.1667 21.2793 29.0752V28.0955C21.2793 27.1833 21.9909 26.4395 22.8893 26.3872C22.9295 26.3849 22.9692 26.3971 23.0011 26.4217ZM6.33171 23.638V22.4561C6.33171 22.358 6.24603 22.279 6.14496 22.2914C6.05946 22.3021 5.89181 22.3058 5.73249 22.2102C5.42037 22.0222 5.41869 21.6105 5.41869 21.6063C5.41965 21.4689 5.26128 21.3897 5.15171 21.4736C4.25594 22.1603 3.15438 22.434 2.07904 22.2915C1.97959 22.2784 1.89128 22.3556 1.89128 22.4561L1.89127 22.4614V22.4626C1.89127 22.5575 1.89117 23.651 1.89146 23.6556C1.91038 24.8639 2.89907 25.8408 4.11146 25.8408C5.32996 25.8408 6.32219 24.8543 6.33171 23.638ZM3.19932 27.7939L3.34751 27.6232C3.40128 27.5613 3.50271 27.6066 3.49253 27.6879L3.31907 29.0751C3.30871 29.1581 3.23812 29.2205 3.15436 29.2205H0.916031C0.824304 29.2205 0.75 29.1462 0.75 29.0544V28.0739C0.75 27.1271 1.51651 26.3605 2.46329 26.3605C2.50359 26.3605 2.54328 26.3571 2.58214 26.3504C2.59705 26.3478 2.61142 26.357 2.61465 26.3718L2.91187 27.7208C2.94115 27.8536 3.10993 27.8968 3.19932 27.7939ZM4.67257 26.1107C4.30435 26.1936 3.91786 26.1934 3.55041 26.1107C3.4712 26.0929 3.4157 26.1867 3.47006 26.2469L3.98803 26.8225C4.05401 26.8959 4.16897 26.8959 4.23495 26.8225L4.75292 26.2469C4.80729 26.1867 4.75178 26.0929 4.67257 26.1107ZM7.18246 22.6142V23.1269C7.18246 23.4951 6.98577 23.8181 6.69197 23.9966C6.65287 24.0203 6.62623 24.06 6.61761 24.1049C6.55719 24.4186 6.4381 24.7159 6.27111 24.9798C6.22866 25.0469 6.23956 25.1354 6.29812 25.189C6.74755 25.5999 7.18258 25.5946 7.54979 25.5901C7.58715 25.5897 7.62381 25.5892 7.65971 25.5892C7.75138 25.5892 7.82568 25.5149 7.82568 25.4233V23.3276C7.82568 22.9979 7.68534 22.7006 7.46117 22.4921C7.35519 22.3936 7.18246 22.4695 7.18246 22.6142ZM5.64084 26.3504C5.6797 26.3571 5.71939 26.3605 5.75963 26.3605C6.70642 26.3605 7.47292 27.1271 7.47292 28.0738V29.0545C7.47292 29.1461 7.39862 29.2205 7.30695 29.2205H5.06856C4.98486 29.2205 4.91421 29.1582 4.90385 29.0751L4.73046 27.688C4.72028 27.6066 4.8217 27.5613 4.87547 27.6232L5.02366 27.7938C5.11287 27.8966 5.28178 27.8538 5.31111 27.7208L5.60833 26.3717C5.61156 26.357 5.62593 26.3478 5.64084 26.3504ZM5.09341 27.1658L5.30411 26.2095C5.31022 26.1818 5.27501 26.1631 5.25573 26.1845L4.69926 26.8028C4.67118 26.834 4.67076 26.8812 4.69824 26.9128L4.94971 27.2023C4.99444 27.2539 5.07868 27.2324 5.09341 27.1658ZM4.16095 27.3668C4.25891 27.3363 4.36033 27.4034 4.37303 27.5052L4.56414 29.0339C4.57648 29.133 4.49924 29.2205 4.39943 29.2205H3.82356C3.72375 29.2205 3.64652 29.133 3.65885 29.0339L3.84997 27.5052C3.86266 27.4036 3.96391 27.336 4.06168 27.3667C4.0915 27.3761 4.13108 27.3761 4.16095 27.3668ZM2.96725 26.1846C2.94755 26.1626 2.91288 26.1825 2.91887 26.2095L3.12956 27.1658C3.14429 27.2325 3.2286 27.2538 3.27332 27.2023L3.52473 26.9128C3.55221 26.8812 3.5518 26.8341 3.52371 26.8029L2.96725 26.1846ZM11.0085 10.5441V9.56436C11.0085 8.61847 11.7744 7.85268 12.7202 7.85268C12.774 7.85268 12.8265 7.84657 12.8768 7.83508C12.9707 7.81352 13.0632 7.87597 13.0779 7.97129L13.4704 10.5188C13.4859 10.6193 13.4081 10.7099 13.3065 10.7099H11.1744C11.0828 10.7099 11.0085 10.6357 11.0085 10.5441ZM14.9129 8.73477L14.4683 9.07899C14.4085 9.12527 14.325 9.12527 14.2653 9.07899L13.8206 8.73477C13.7021 8.64304 13.5323 8.74303 13.5552 8.89116L13.8138 10.5693C13.8262 10.6502 13.8958 10.7099 13.9777 10.7099H14.7559C14.8377 10.7099 14.9073 10.6502 14.9197 10.5693L15.1784 8.89116C15.2012 8.74303 15.0314 8.64304 14.9129 8.73477ZM17.5592 10.7099H15.4271C15.3254 10.7099 15.2477 10.6192 15.2632 10.5188L15.6556 7.97131C15.6703 7.87623 15.7626 7.81348 15.8563 7.83503C15.9072 7.84671 15.9598 7.8527 16.0133 7.8527C16.9593 7.8527 17.725 8.61848 17.725 9.56437V10.544C17.725 10.6356 17.6508 10.7099 17.5592 10.7099ZM16.5849 5.13272V3.7446C16.5849 3.64144 16.4914 3.56342 16.39 3.58127L15.5655 3.7279C15.4962 3.74017 15.4291 3.70054 15.4041 3.63473C15.3422 3.47176 15.2496 3.32321 15.1305 3.1961C15.0462 3.10563 14.8962 3.13652 14.8537 3.25208C14.789 3.42841 14.73 3.58192 14.6694 3.73436C14.6479 3.78831 14.5963 3.82459 14.5382 3.82579C13.7956 3.8401 13.0665 3.75885 12.3541 3.58354C12.2501 3.55786 12.1486 3.63671 12.1486 3.7446V5.1408C12.1486 6.31032 13.1247 7.33339 14.3668 7.33339C15.584 7.33339 16.5754 6.34792 16.5849 5.13272ZM4.79665 17.3907C4.79665 17.7739 4.54116 18.0294 4.15797 18.0294C3.77478 18.0294 3.5193 17.7739 3.5193 17.3907V14.8362C3.5193 14.453 3.77478 14.1975 4.15797 14.1975H13.7378V12.2815C13.7378 11.8983 13.9933 11.6428 14.3765 11.6428C14.7597 11.6428 15.0151 11.8983 15.0151 12.2815V14.1975H24.5949C24.9781 14.1975 25.2336 14.453 25.2336 14.8362V17.3907C25.2336 17.7739 24.9781 18.0294 24.5949 18.0294C24.2117 18.0294 23.9563 17.7739 23.9563 17.3907V15.4748H4.79665V17.3907Z" fill="url(#paint0_linear_64_1104)"/>
<defs>
<linearGradient id="paint0_linear_64_1104" x1="14.1035" y1="-12.0347" x2="-13.3084" y2="14.4025" gradientUnits="userSpaceOnUse">
<stop stop-color="#16BAC5"/>
<stop offset="1" stop-color="#0184BB"/>
</linearGradient>
</defs>
</svg>
