<svg width="19" height="19" viewBox="0 0 19 19" fill="none" xmlns="http://www.w3.org/2000/svg">
<path fill-rule="evenodd" clip-rule="evenodd" d="M14.5625 4.18334C19.0012 6.46622 20.1367 12.3183 16.8731 16.0826L18.586 17.7731C18.9343 18.1168 18.691 18.711 18.2028 18.7134L11.0411 18.75C8.46402 18.75 6.10917 17.4748 4.6837 15.4006L0.547126 15.3809C0.0572094 15.3785 -0.183281 14.7832 0.163887 14.4405L1.8768 12.7501C0.662849 11.3499 0.000446675 9.58004 0.000446675 7.70874C0.000446675 3.45813 3.45836 0 7.70875 0C10.6897 0 13.2806 1.70101 14.5625 4.18334ZM1.09898 7.70874C1.09898 9.47205 1.78508 11.1305 3.03082 12.3786C3.2459 12.5941 3.24461 12.9437 3.02789 13.1576L1.88191 14.2886L7.49438 14.3153C11.5546 14.347 14.3185 11.2014 14.3185 7.70874C14.3185 4.06392 11.3533 1.09863 7.70873 1.09863C4.06412 1.09863 1.09898 4.06392 1.09898 7.70874ZM11.0411 17.6513C9.1136 17.6513 7.32199 16.8278 6.07658 15.4072L7.14643 15.4142L7.14761 15.4142L7.16149 15.4143C7.6379 15.4175 7.70907 15.4179 7.70907 15.4178L7.70426 15.4177C7.69749 15.4176 7.68813 15.4175 7.70875 15.4175C12.6673 15.4175 16.3699 10.7662 15.2047 5.91C18.243 8.39196 18.4918 12.9332 15.719 15.711C15.5039 15.9266 15.5052 16.2762 15.722 16.4901L16.8679 17.6211L11.0411 17.6513ZM11.0228 6.0791H4.43134C4.12801 6.0791 3.88206 5.83315 3.88206 5.52979C3.88206 5.22642 4.12797 4.98047 4.43134 4.98047H11.0228C11.3261 4.98047 11.572 5.22642 11.572 5.52979C11.572 5.83315 11.3261 6.0791 11.0228 6.0791ZM4.43134 8.27637H11.0228C11.3261 8.27637 11.572 8.03042 11.572 7.72705C11.572 7.42368 11.3261 7.17773 11.0228 7.17773H4.43134C4.12797 7.17773 3.88206 7.42368 3.88206 7.72705C3.88206 8.03042 4.12801 8.27637 4.43134 8.27637ZM11.0228 10.4736H4.43134C4.12801 10.4736 3.88206 10.2277 3.88206 9.92432C3.88206 9.62095 4.12797 9.375 4.43134 9.375H11.0228C11.3261 9.375 11.572 9.62095 11.572 9.92432C11.572 10.2277 11.3261 10.4736 11.0228 10.4736Z" fill="url(#paint0_linear_281_3324)"/>
<defs>
<linearGradient id="paint0_linear_281_3324" x1="9.112" y1="-8.41364" x2="-8.93964" y2="9.63803" gradientUnits="userSpaceOnUse">
<stop stop-color="#16BAC5"/>
<stop offset="1" stop-color="#0184BB"/>
</linearGradient>
</defs>
</svg>
