<svg width="15" height="17" viewBox="0 0 15 17" fill="none" xmlns="http://www.w3.org/2000/svg">
<path fill-rule="evenodd" clip-rule="evenodd" d="M8.1417 12.2763C8.20222 12.1011 8.28185 11.9291 8.37104 11.7666L8.45067 11.6264H8.28822C7.9251 11.6233 7.59701 11.4353 7.40907 11.1264C7.35811 11.0435 7.27847 10.983 7.18291 10.9607C7.08735 10.9384 6.98861 10.9543 6.90579 11.0053C6.82297 11.0563 6.76245 11.1359 6.74015 11.2315C6.71786 11.327 6.73378 11.4258 6.78475 11.5086C6.92172 11.7347 7.10965 11.9259 7.32625 12.0692L7.1001 13.0949L6.59363 12.5152C6.64459 12.4291 6.65096 12.3495 6.64778 12.2922C6.63822 12.1998 6.59681 12.1106 6.52355 12.0501C6.45029 11.9864 6.35473 11.9545 6.25598 11.9609C6.15724 11.9673 6.06805 12.0119 6.00434 12.0851L5.59662 12.5534L4.50724 11.343C4.58369 11.1837 4.63147 11.018 4.65695 10.8429C5.75589 11.1295 6.90261 10.9097 7.81998 10.2281C8.77239 9.52095 9.32345 8.44112 9.32982 7.26255V5.30357C9.31708 5.10927 9.15782 4.95956 8.96351 4.95956C8.95714 4.95956 8.94122 4.95956 8.9221 4.96274L8.92177 4.96277C8.82277 4.97235 8.56187 4.9976 8.30096 4.8417C7.83909 4.56458 7.83272 3.94025 7.83272 3.93707C7.83272 3.8001 7.75946 3.67268 7.63523 3.60898C7.511 3.54527 7.36766 3.55483 7.25299 3.63446C6.12539 4.43398 4.80666 4.95637 3.44015 5.14749C3.34141 5.16023 3.2554 5.2112 3.19807 5.29083C3.13755 5.37046 3.11525 5.46602 3.12799 5.56158C3.15347 5.74315 3.30956 5.87693 3.49112 5.87693C3.53253 5.87693 4.01988 5.82596 4.70473 5.63485C5.32587 5.46284 6.2528 5.13475 7.20521 4.54546C7.425 5.20164 7.93147 5.6221 8.59083 5.69218V7.23069C8.59083 8.88388 7.24662 10.2281 5.59344 10.2281C4.82259 10.2281 4.06448 9.9223 3.5166 9.39035C2.92413 8.81699 2.59923 8.01429 2.59923 7.12558V5.32587C2.59923 5.12201 2.43359 4.95956 2.23291 4.95956C2.03224 4.95956 1.8666 5.12519 1.8666 5.32587V6.73697C1.79334 6.65097 1.75193 6.54266 1.75193 6.42481V3.76187C1.75512 2.95598 2.07046 2.19788 2.64382 1.62452C3.21718 1.05116 3.97847 0.735811 4.78436 0.735811H6.41525C8.08755 0.735811 9.4445 2.09595 9.4445 3.76506V6.42799C9.4445 6.63185 9.61013 6.7943 9.81081 6.7943C10.0115 6.7943 10.1771 6.62867 10.1771 6.42799V5.58388C10.6836 5.74315 11.0403 6.21776 11.0403 6.75608V9.82037H10.8301C10.3109 9.82037 9.82355 9.59102 9.49228 9.19286C9.36168 9.03678 9.12915 9.01448 8.97625 9.14508C8.82017 9.27568 8.79787 9.5082 8.92847 9.6611C9.19286 9.97645 9.5305 10.2249 9.91274 10.3778L9.94778 10.3905L9.98282 10.3778C10.3396 10.2408 10.7186 10.1708 11.1009 10.1708C11.2888 10.1708 11.4799 10.1867 11.6647 10.2217L11.7762 10.2408V6.75608C11.7762 5.81641 11.0945 5.00097 10.1803 4.82577V3.76506C10.1803 1.68822 8.49208 0 6.41525 0H4.78436C2.70753 0 1.0193 1.68822 1.0193 3.76506V6.42799C1.0193 6.9695 1.37288 7.44093 1.88571 7.59382C2.00676 8.86795 2.79035 10.0019 3.94025 10.5753V10.588C3.94025 11.1614 3.47519 11.6264 2.89865 11.6264C1.3028 11.6264 0 12.9261 0 14.5283V16.1337C0 16.3375 0.165637 16.5 0.366313 16.5C0.566988 16.5 0.732625 16.3344 0.732625 16.1337V14.5283C0.732625 13.9486 0.958784 13.4039 1.36651 12.9961C1.77741 12.5852 2.3221 12.3591 2.90183 12.3591C2.99421 12.3591 3.08977 12.3527 3.18214 12.3368L3.54208 13.9677C3.57075 14.1046 3.67587 14.2097 3.80965 14.2448C3.94662 14.2798 4.08678 14.2352 4.17915 14.1301L4.50724 13.7511L4.21419 16.0859C4.20145 16.191 4.2333 16.2961 4.30338 16.3758C4.37346 16.4554 4.4722 16.5 4.5805 16.5C4.76525 16.5 4.92133 16.363 4.94363 16.1783L5.30038 13.3274C5.35454 13.3847 5.36409 13.3943 5.39276 13.4134C5.43417 13.4421 5.48195 13.4612 5.52973 13.4708C5.56158 13.4771 5.59025 13.4771 5.59981 13.4771C5.73359 13.4771 5.81322 13.4198 5.89923 13.3274L6.25598 16.1783C6.27828 16.363 6.43436 16.5 6.61911 16.5C6.72423 16.5 6.82616 16.4554 6.89623 16.3758C6.96631 16.2961 6.99817 16.191 6.98542 16.0859L6.69237 13.7511L7.02046 14.1301C7.11284 14.2352 7.25299 14.2798 7.38678 14.2448C7.52374 14.2097 7.62567 14.1046 7.65434 13.9677L8.01429 12.3368C8.01747 12.3368 8.02066 12.3376 8.02384 12.3384C8.02703 12.3392 8.03021 12.34 8.0334 12.34L8.11303 12.3527L8.1417 12.2763ZM4.59006 12.5375L4.1027 13.0981L3.87654 12.0692C3.93706 12.0278 3.9944 11.9864 4.05174 11.9354L4.59006 12.5375ZM11.1013 10.3359C9.42582 10.3359 8.0625 11.6993 8.0625 13.3747C8.0625 15.0502 9.42582 16.4135 11.1013 16.4135C12.7768 16.4135 14.1401 15.0502 14.1401 13.3747C14.1401 11.6993 12.7768 10.3359 11.1013 10.3359ZM13.4712 13.3716C13.4712 14.6775 12.4073 15.7414 11.1013 15.7414C9.79532 15.7414 8.73142 14.6775 8.73142 13.3716C8.73142 12.0656 9.79532 11.0017 11.1013 11.0017C12.4073 11.0017 13.4712 12.0656 13.4712 13.3716ZM11.4358 13.0373H12.248C12.4328 13.0373 12.5825 13.1871 12.5825 13.3718C12.5825 13.5566 12.4328 13.7063 12.248 13.7063H11.4358V14.5185C11.4358 14.7033 11.286 14.853 11.1013 14.853C10.9165 14.853 10.7668 14.7033 10.7668 14.5185V13.7063H9.95458C9.76983 13.7063 9.62012 13.5566 9.62012 13.3718C9.62012 13.1871 9.76983 13.0373 9.95458 13.0373H10.7668V12.2251C10.7668 12.0403 10.9165 11.8906 11.1013 11.8906C11.286 11.8906 11.4358 12.0403 11.4358 12.2251V13.0373Z" fill="black"/>
<path fill-rule="evenodd" clip-rule="evenodd" d="M8.1417 12.2763C8.20222 12.1011 8.28185 11.9291 8.37104 11.7666L8.45067 11.6264H8.28822C7.9251 11.6233 7.59701 11.4353 7.40907 11.1264C7.35811 11.0435 7.27847 10.983 7.18291 10.9607C7.08735 10.9384 6.98861 10.9543 6.90579 11.0053C6.82297 11.0563 6.76245 11.1359 6.74015 11.2315C6.71786 11.327 6.73378 11.4258 6.78475 11.5086C6.92172 11.7347 7.10965 11.9259 7.32625 12.0692L7.1001 13.0949L6.59363 12.5152C6.64459 12.4291 6.65096 12.3495 6.64778 12.2922C6.63822 12.1998 6.59681 12.1106 6.52355 12.0501C6.45029 11.9864 6.35473 11.9545 6.25598 11.9609C6.15724 11.9673 6.06805 12.0119 6.00434 12.0851L5.59662 12.5534L4.50724 11.343C4.58369 11.1837 4.63147 11.018 4.65695 10.8429C5.75589 11.1295 6.90261 10.9097 7.81998 10.2281C8.77239 9.52095 9.32345 8.44112 9.32982 7.26255V5.30357C9.31708 5.10927 9.15782 4.95956 8.96351 4.95956C8.95714 4.95956 8.94122 4.95956 8.9221 4.96274L8.92177 4.96277C8.82277 4.97235 8.56187 4.9976 8.30096 4.8417C7.83909 4.56458 7.83272 3.94025 7.83272 3.93707C7.83272 3.8001 7.75946 3.67268 7.63523 3.60898C7.511 3.54527 7.36766 3.55483 7.25299 3.63446C6.12539 4.43398 4.80666 4.95637 3.44015 5.14749C3.34141 5.16023 3.2554 5.2112 3.19807 5.29083C3.13755 5.37046 3.11525 5.46602 3.12799 5.56158C3.15347 5.74315 3.30956 5.87693 3.49112 5.87693C3.53253 5.87693 4.01988 5.82596 4.70473 5.63485C5.32587 5.46284 6.2528 5.13475 7.20521 4.54546C7.425 5.20164 7.93147 5.6221 8.59083 5.69218V7.23069C8.59083 8.88388 7.24662 10.2281 5.59344 10.2281C4.82259 10.2281 4.06448 9.9223 3.5166 9.39035C2.92413 8.81699 2.59923 8.01429 2.59923 7.12558V5.32587C2.59923 5.12201 2.43359 4.95956 2.23291 4.95956C2.03224 4.95956 1.8666 5.12519 1.8666 5.32587V6.73697C1.79334 6.65097 1.75193 6.54266 1.75193 6.42481V3.76187C1.75512 2.95598 2.07046 2.19788 2.64382 1.62452C3.21718 1.05116 3.97847 0.735811 4.78436 0.735811H6.41525C8.08755 0.735811 9.4445 2.09595 9.4445 3.76506V6.42799C9.4445 6.63185 9.61013 6.7943 9.81081 6.7943C10.0115 6.7943 10.1771 6.62867 10.1771 6.42799V5.58388C10.6836 5.74315 11.0403 6.21776 11.0403 6.75608V9.82037H10.8301C10.3109 9.82037 9.82355 9.59102 9.49228 9.19286C9.36168 9.03678 9.12915 9.01448 8.97625 9.14508C8.82017 9.27568 8.79787 9.5082 8.92847 9.6611C9.19286 9.97645 9.5305 10.2249 9.91274 10.3778L9.94778 10.3905L9.98282 10.3778C10.3396 10.2408 10.7186 10.1708 11.1009 10.1708C11.2888 10.1708 11.4799 10.1867 11.6647 10.2217L11.7762 10.2408V6.75608C11.7762 5.81641 11.0945 5.00097 10.1803 4.82577V3.76506C10.1803 1.68822 8.49208 0 6.41525 0H4.78436C2.70753 0 1.0193 1.68822 1.0193 3.76506V6.42799C1.0193 6.9695 1.37288 7.44093 1.88571 7.59382C2.00676 8.86795 2.79035 10.0019 3.94025 10.5753V10.588C3.94025 11.1614 3.47519 11.6264 2.89865 11.6264C1.3028 11.6264 0 12.9261 0 14.5283V16.1337C0 16.3375 0.165637 16.5 0.366313 16.5C0.566988 16.5 0.732625 16.3344 0.732625 16.1337V14.5283C0.732625 13.9486 0.958784 13.4039 1.36651 12.9961C1.77741 12.5852 2.3221 12.3591 2.90183 12.3591C2.99421 12.3591 3.08977 12.3527 3.18214 12.3368L3.54208 13.9677C3.57075 14.1046 3.67587 14.2097 3.80965 14.2448C3.94662 14.2798 4.08678 14.2352 4.17915 14.1301L4.50724 13.7511L4.21419 16.0859C4.20145 16.191 4.2333 16.2961 4.30338 16.3758C4.37346 16.4554 4.4722 16.5 4.5805 16.5C4.76525 16.5 4.92133 16.363 4.94363 16.1783L5.30038 13.3274C5.35454 13.3847 5.36409 13.3943 5.39276 13.4134C5.43417 13.4421 5.48195 13.4612 5.52973 13.4708C5.56158 13.4771 5.59025 13.4771 5.59981 13.4771C5.73359 13.4771 5.81322 13.4198 5.89923 13.3274L6.25598 16.1783C6.27828 16.363 6.43436 16.5 6.61911 16.5C6.72423 16.5 6.82616 16.4554 6.89623 16.3758C6.96631 16.2961 6.99817 16.191 6.98542 16.0859L6.69237 13.7511L7.02046 14.1301C7.11284 14.2352 7.25299 14.2798 7.38678 14.2448C7.52374 14.2097 7.62567 14.1046 7.65434 13.9677L8.01429 12.3368C8.01747 12.3368 8.02066 12.3376 8.02384 12.3384C8.02703 12.3392 8.03021 12.34 8.0334 12.34L8.11303 12.3527L8.1417 12.2763ZM4.59006 12.5375L4.1027 13.0981L3.87654 12.0692C3.93706 12.0278 3.9944 11.9864 4.05174 11.9354L4.59006 12.5375ZM11.1013 10.3359C9.42582 10.3359 8.0625 11.6993 8.0625 13.3747C8.0625 15.0502 9.42582 16.4135 11.1013 16.4135C12.7768 16.4135 14.1401 15.0502 14.1401 13.3747C14.1401 11.6993 12.7768 10.3359 11.1013 10.3359ZM13.4712 13.3716C13.4712 14.6775 12.4073 15.7414 11.1013 15.7414C9.79532 15.7414 8.73142 14.6775 8.73142 13.3716C8.73142 12.0656 9.79532 11.0017 11.1013 11.0017C12.4073 11.0017 13.4712 12.0656 13.4712 13.3716ZM11.4358 13.0373H12.248C12.4328 13.0373 12.5825 13.1871 12.5825 13.3718C12.5825 13.5566 12.4328 13.7063 12.248 13.7063H11.4358V14.5185C11.4358 14.7033 11.286 14.853 11.1013 14.853C10.9165 14.853 10.7668 14.7033 10.7668 14.5185V13.7063H9.95458C9.76983 13.7063 9.62012 13.5566 9.62012 13.3718C9.62012 13.1871 9.76983 13.0373 9.95458 13.0373H10.7668V12.2251C10.7668 12.0403 10.9165 11.8906 11.1013 11.8906C11.286 11.8906 11.4358 12.0403 11.4358 12.2251V13.0373Z" fill="url(#paint0_linear_319_3368)"/>
<defs>
<linearGradient id="paint0_linear_319_3368" x1="6.87172" y1="-7.404" x2="-8.82638" y2="6.04891" gradientUnits="userSpaceOnUse">
<stop stop-color="#16BAC5"/>
<stop offset="1" stop-color="#0184BB"/>
</linearGradient>
</defs>
</svg>
