<svg width="18" height="18" viewBox="0 0 18 18" fill="none" xmlns="http://www.w3.org/2000/svg">
<path fill-rule="evenodd" clip-rule="evenodd" d="M9 0.75C4.45089 0.75 0.75 4.45089 0.75 9C0.75 13.5491 4.45089 17.25 9 17.25C13.5491 17.25 17.25 13.5491 17.25 9C17.25 4.45089 13.5491 0.75 9 0.75ZM9 16.2832C4.98402 16.2832 1.7168 13.016 1.7168 9C1.7168 4.98402 4.98402 1.7168 9 1.7168C13.016 1.7168 16.2832 4.98402 16.2832 9C16.2832 13.016 13.016 16.2832 9 16.2832ZM13.0253 7.3275C13.0253 6.62661 12.4571 6.05843 11.7562 6.05843C11.0553 6.05843 10.4871 6.62661 10.4871 7.3275C10.4871 8.02838 11.0553 8.59656 11.7562 8.59656C12.4571 8.59656 13.0253 8.02838 13.0253 7.3275ZM6.2431 6.05843C6.94352 6.05843 7.5115 6.62589 7.51216 7.3263C7.51282 8.02672 6.9459 8.59524 6.24548 8.59656C5.54507 8.59788 4.97601 8.0315 4.97403 7.33108C4.97308 6.99376 5.10646 6.66994 5.34472 6.43114C5.5828 6.19252 5.90604 6.05843 6.2431 6.05843ZM4.22557 10.9636C4.2478 11.0206 4.26985 11.0771 4.29529 11.1328C5.13181 12.9643 6.96352 14.159 9 14.1652C10.8849 14.1594 12.5943 13.1356 13.5017 11.5311C13.6362 11.2932 13.7584 11.043 13.8503 10.7805C14.063 10.1727 13.2653 9.68765 12.8294 10.4039C12.791 10.4671 12.7686 10.5314 12.7464 10.5951C12.7316 10.6374 12.717 10.6793 12.6979 10.7204C12.0329 12.1482 10.5955 13.0765 9 13.0765C7.37111 13.0765 5.90691 12.1089 5.26137 10.63C5.24738 10.598 5.23534 10.5656 5.22323 10.533C5.20732 10.4902 5.19129 10.447 5.17056 10.4039C4.69853 9.42244 3.78394 9.99093 4.14972 10.7805C4.17806 10.8417 4.20191 10.9029 4.22557 10.9636Z" fill="url(#paint0_linear_319_3263)"/>
<defs>
<linearGradient id="paint0_linear_319_3263" x1="8.76855" y1="-6.654" x2="-7.11689" y2="9.23145" gradientUnits="userSpaceOnUse">
<stop stop-color="#16BAC5"/>
<stop offset="1" stop-color="#0184BB"/>
</linearGradient>
</defs>
</svg>
