<svg width="18" height="18" viewBox="0 0 18 18" fill="none" xmlns="http://www.w3.org/2000/svg">
<path fill-rule="evenodd" clip-rule="evenodd" d="M17.1533 6.74413L15.4676 4.49656L15.5334 4.03626C15.5549 3.88564 15.5043 3.73366 15.3967 3.62608L14.3712 2.60063L15.3966 1.57519C15.5854 1.38643 15.5854 1.08035 15.3966 0.891563C15.2079 0.702812 14.9018 0.702812 14.713 0.891563L13.6876 1.91701L12.6622 0.891563C12.5546 0.783959 12.4026 0.733492 12.252 0.754826L7.46656 1.43845C7.36301 1.45324 7.26707 1.50123 7.19311 1.57519L1.26832 7.49997C0.577225 8.19104 0.577225 9.31556 1.26832 10.0066L6.28159 15.0199C6.38413 15.1225 6.49641 15.2094 6.61523 15.2815V15.4775C6.61523 16.4549 7.41035 17.25 8.38769 17.25H15.4775C16.4549 17.25 17.25 16.4549 17.25 15.4775V7.03417C17.25 6.9296 17.2161 6.82779 17.1533 6.74413ZM1.95195 9.323C1.6378 9.00885 1.6378 8.49774 1.95195 8.1836L7.76278 2.37276L12.1494 1.74611L13.004 2.60067L12.3203 3.28429L11.9785 2.94246C11.7898 2.75371 11.4837 2.75371 11.2949 2.94246C11.1061 3.13121 11.1061 3.4373 11.2949 3.62608L12.6622 4.99336C12.7565 5.08775 12.8803 5.13496 13.004 5.13496C13.1276 5.13496 13.2514 5.08775 13.3457 4.99336C13.5345 4.80461 13.5345 4.49852 13.3457 4.30974L13.0039 3.96791L13.6875 3.28429L14.5421 4.13884L13.9154 8.52546L8.10461 14.3363C7.95244 14.4885 7.75012 14.5723 7.53491 14.5723C7.3197 14.5723 7.11738 14.4884 6.96521 14.3363L1.95195 9.323ZM15.4775 16.2832C15.9218 16.2832 16.2832 15.9218 16.2832 15.4775V7.19531L15.2742 5.85007L14.8497 8.82168C14.8349 8.92523 14.787 9.02117 14.713 9.09513L8.7882 15.0199C8.45527 15.3529 8.02166 15.5249 7.58444 15.537C7.61502 15.9536 7.96346 16.2832 8.38769 16.2832H15.4775Z" fill="url(#paint0_linear_319_3225)"/>
<defs>
<linearGradient id="paint0_linear_319_3225" x1="8.76855" y1="-6.654" x2="-7.11689" y2="9.23144" gradientUnits="userSpaceOnUse">
<stop stop-color="#16BAC5"/>
<stop offset="1" stop-color="#0184BB"/>
</linearGradient>
</defs>
</svg>
