<svg width="12" height="16" viewBox="0 0 12 16" fill="none" xmlns="http://www.w3.org/2000/svg">
<path d="M11.128 0.941176C11.3495 0.719723 11.3495 0.387543 11.128 0.16609C10.9066 -0.0553633 10.5744 -0.0553633 10.3529 0.16609L5.5917 4.81661L0.941177 0.276817C0.719724 0.0553633 0.387543 0.0553633 0.16609 0.276817C-0.0553633 0.49827 -0.0553633 0.83045 0.16609 1.0519L5.03806 5.81315V12.8997H3.26644C3.04498 12.8997 2.93426 13.0104 2.93426 13.1211C2.93426 13.2318 2.93425 13.4533 3.04498 13.564L5.37024 15.8893C5.48097 16 5.5917 16 5.70242 16C5.81315 16 5.92387 16 6.0346 15.8893L8.35986 13.564C8.47059 13.4533 8.47059 13.2318 8.47059 13.1211C8.35986 13.0104 8.24914 12.8997 8.13841 12.8997H6.36678V5.81315L11.128 0.941176ZM5.5917 15.1142L4.26298 13.7855H7.03114L5.5917 15.1142Z" fill="url(#paint0_linear_319_3306)"/>
<defs>
<linearGradient id="paint0_linear_319_3306" x1="5.48864" y1="-7.17964" x2="-9.02605" y2="3.06603" gradientUnits="userSpaceOnUse">
<stop stop-color="#16BAC5"/>
<stop offset="1" stop-color="#0184BB"/>
</linearGradient>
</defs>
</svg>
