<svg width="16" height="14" viewBox="0 0 16 14" fill="none" xmlns="http://www.w3.org/2000/svg">
<path fill-rule="evenodd" clip-rule="evenodd" d="M6 0.799951C6 0.499951 6.2 0.199951 6.5 0.199951C6.8 0.199951 7 0.499951 7 0.799951V7.39995C7 7.49995 7 7.69995 6.9 7.69995L2.5 12L3.6 13.2C3.7 13.3 3.8 13.5 3.7 13.6C3.7 13.7 3.6 13.8 3.4 13.8H0.4C0.2 13.8 0 13.6 0 13.4V10.4C0 10.3 0.1 10.2 0.3 10.1C0.4 10.1 0.6 10.1 0.7 10.2L1.8 11.3L6 7.19995V0.799951ZM0.8 11.4V13.1H2.5L0.8 11.4ZM14.8002 10.1999C14.9002 10.0999 15.1002 9.99995 15.2002 10.0999C15.3002 10.2 15.4002 10.2999 15.4002 10.5999V13.5999C15.4002 13.7999 15.2002 13.9999 15.0002 13.9999H12.0002C11.9002 13.9999 11.8002 13.9 11.7002 13.7999C11.7002 13.6999 11.7002 13.4999 11.8002 13.3999L12.9002 12.2999L8.4002 7.89995C8.30019 7.79995 8.2002 7.59995 8.2002 7.49995V0.79995C8.2002 0.49995 8.4002 0.29995 8.7002 0.29995C9.0002 0.29995 9.2002 0.49995 9.2002 0.79995V7.19995L13.6002 11.3999L14.8002 10.1999ZM13.0002 13.0999H14.7002V11.3999L13.0002 13.0999Z" fill="url(#paint0_linear_319_3231)"/>
<defs>
<linearGradient id="paint0_linear_319_3231" x1="7.48408" y1="-5.99248" x2="-5.72237" y2="8.74533" gradientUnits="userSpaceOnUse">
<stop stop-color="#16BAC5"/>
<stop offset="1" stop-color="#0184BB"/>
</linearGradient>
</defs>
</svg>
