<svg width="28" height="28" viewBox="0 0 28 28" fill="none" xmlns="http://www.w3.org/2000/svg">
<path fill-rule="evenodd" clip-rule="evenodd" d="M21.2734 14.1207C21.0359 14.301 20.9381 14.6022 21.0241 14.8877C21.4647 16.3482 20.5188 17.8678 19.116 18.2191C19.0372 18.2388 18.9533 18.2303 18.8807 18.1939C18.2862 17.8959 17.6299 17.7413 16.9542 17.7413C16.3777 17.7413 16.3084 17.2535 16.5734 17.0667C17.9413 16.1025 18.8407 14.5162 18.8565 12.7227V10.8899C18.8565 8.57858 16.9761 6.69819 14.6652 6.69819H14.3657C14.243 6.37205 13.9601 6.11446 13.5934 6.03981C13.0267 5.92411 12.4731 6.29041 12.3578 6.85754C11.9187 9.00605 10.1868 10.3556 8.07137 10.5642C7.49551 10.6214 7.07507 11.1344 7.13183 11.7102C7.18335 12.232 7.60902 12.6262 8.11634 12.6533C8.11634 14.4796 9.00646 16.0847 10.3997 17.0669C10.6649 17.2539 10.5955 17.7413 10.0186 17.7413C9.34408 17.7413 8.68762 17.8954 8.09215 18.1939C8.01955 18.2303 7.93564 18.2388 7.85683 18.2191C6.45503 17.868 5.50776 16.3494 5.94871 14.8877C6.03472 14.6022 5.93692 14.301 5.69942 14.1207C4.33368 13.0833 4.33416 10.9454 5.69942 9.90844C5.93692 9.72812 6.03472 9.42688 5.94871 9.14135C5.45353 7.49998 6.71069 5.76951 8.42462 5.73376C8.72281 5.72721 8.97909 5.54122 9.07732 5.25962C9.64109 3.64074 11.6748 2.97975 13.083 3.95771C13.328 4.12798 13.6445 4.12798 13.8899 3.95771C15.2979 2.97983 17.3312 3.64039 17.896 5.25962C17.9938 5.54122 18.2501 5.72721 18.5483 5.73376C20.2624 5.76951 21.5193 7.50007 21.0242 9.14135C20.9382 9.42688 21.036 9.72812 21.2735 9.90844C22.6392 10.9458 22.6387 13.0836 21.2734 14.1207ZM14.6652 7.39673H13.6685C13.6894 7.31072 13.7091 7.22384 13.727 7.13609C13.7654 6.94704 13.6431 6.7628 13.4541 6.72438C13.2651 6.68553 13.0808 6.80777 13.0424 6.99681C12.9809 7.29994 12.8931 7.58237 12.8651 7.65869C12.8651 7.6592 12.865 7.65956 12.8649 7.65995L12.8647 7.66087C12.1589 9.76205 10.2843 11.0472 8.14035 11.2597C7.94825 11.2785 7.80811 11.4496 7.82688 11.6413C7.84461 11.8196 7.99768 11.9704 8.2089 11.9547C8.36913 11.939 8.5752 11.9115 8.81489 11.8648V12.6747C8.81489 15.2506 10.9105 17.3462 13.4864 17.3462C16.0501 17.3462 18.1378 15.2706 18.1579 12.7113V10.8899C18.1579 8.96365 16.591 7.39673 14.6652 7.39673ZM13.1371 24.1081V21.0889C13.1371 20.9809 13.0871 20.8789 13.0017 20.8128L10.04 18.5199C9.97285 18.4679 9.88912 18.4422 9.80442 18.4471C7.91228 18.5572 6.41364 20.1237 6.41364 22.0448V24.1081C6.41364 24.301 6.57002 24.4574 6.76291 24.4574H12.7879C12.9807 24.4574 13.1371 24.301 13.1371 24.1081ZM15.8383 18.4839L13.7003 20.1391C13.5742 20.2364 13.3986 20.2364 13.2725 20.1391L11.1345 18.4839C10.973 18.3586 10.9524 18.1216 11.0917 17.9714C11.1341 17.9256 11.1735 17.8772 11.2097 17.8264C11.3 17.6996 11.4663 17.6524 11.6122 17.7069C12.8414 18.1669 14.1828 18.148 15.3609 17.7069C15.5067 17.6524 15.673 17.6995 15.7634 17.8264C15.7995 17.877 15.8388 17.9254 15.8811 17.971C16.0199 18.1211 16.0003 18.3586 15.8383 18.4839ZM20.5592 24.1081V22.0448C20.5592 20.1243 19.0611 18.5572 17.1684 18.4471C17.0837 18.4422 17 18.4679 16.9328 18.5198L13.9711 20.8128C13.8857 20.8789 13.8357 20.9809 13.8357 21.0889V24.1081C13.8357 24.301 13.9921 24.4574 14.1849 24.4574H20.2099C20.4028 24.4574 20.5592 24.301 20.5592 24.1081Z" fill="#0084F4"/>
<path fill-rule="evenodd" clip-rule="evenodd" d="M21.2734 14.1207C21.0359 14.301 20.9381 14.6022 21.0241 14.8877C21.4647 16.3482 20.5188 17.8678 19.116 18.2191C19.0372 18.2388 18.9533 18.2303 18.8807 18.1939C18.2862 17.8959 17.6299 17.7413 16.9542 17.7413C16.3777 17.7413 16.3084 17.2535 16.5734 17.0667C17.9413 16.1025 18.8407 14.5162 18.8565 12.7227V10.8899C18.8565 8.57858 16.9761 6.69819 14.6652 6.69819H14.3657C14.243 6.37205 13.9601 6.11446 13.5934 6.03981C13.0267 5.92411 12.4731 6.29041 12.3578 6.85754C11.9187 9.00605 10.1868 10.3556 8.07137 10.5642C7.49551 10.6214 7.07507 11.1344 7.13183 11.7102C7.18335 12.232 7.60902 12.6262 8.11634 12.6533C8.11634 14.4796 9.00646 16.0847 10.3997 17.0669C10.6649 17.2539 10.5955 17.7413 10.0186 17.7413C9.34408 17.7413 8.68762 17.8954 8.09215 18.1939C8.01955 18.2303 7.93564 18.2388 7.85683 18.2191C6.45503 17.868 5.50776 16.3494 5.94871 14.8877C6.03472 14.6022 5.93692 14.301 5.69942 14.1207C4.33368 13.0833 4.33416 10.9454 5.69942 9.90844C5.93692 9.72812 6.03472 9.42688 5.94871 9.14135C5.45353 7.49998 6.71069 5.76951 8.42462 5.73376C8.72281 5.72721 8.97909 5.54122 9.07732 5.25962C9.64109 3.64074 11.6748 2.97975 13.083 3.95771C13.328 4.12798 13.6445 4.12798 13.8899 3.95771C15.2979 2.97983 17.3312 3.64039 17.896 5.25962C17.9938 5.54122 18.2501 5.72721 18.5483 5.73376C20.2624 5.76951 21.5193 7.50007 21.0242 9.14135C20.9382 9.42688 21.036 9.72812 21.2735 9.90844C22.6392 10.9458 22.6387 13.0836 21.2734 14.1207ZM14.6652 7.39673H13.6685C13.6894 7.31072 13.7091 7.22384 13.727 7.13609C13.7654 6.94704 13.6431 6.7628 13.4541 6.72438C13.2651 6.68553 13.0808 6.80777 13.0424 6.99681C12.9809 7.29994 12.8931 7.58237 12.8651 7.65869C12.8651 7.6592 12.865 7.65956 12.8649 7.65995L12.8647 7.66087C12.1589 9.76205 10.2843 11.0472 8.14035 11.2597C7.94825 11.2785 7.80811 11.4496 7.82688 11.6413C7.84461 11.8196 7.99768 11.9704 8.2089 11.9547C8.36913 11.939 8.5752 11.9115 8.81489 11.8648V12.6747C8.81489 15.2506 10.9105 17.3462 13.4864 17.3462C16.0501 17.3462 18.1378 15.2706 18.1579 12.7113V10.8899C18.1579 8.96365 16.591 7.39673 14.6652 7.39673ZM13.1371 24.1081V21.0889C13.1371 20.9809 13.0871 20.8789 13.0017 20.8128L10.04 18.5199C9.97285 18.4679 9.88912 18.4422 9.80442 18.4471C7.91228 18.5572 6.41364 20.1237 6.41364 22.0448V24.1081C6.41364 24.301 6.57002 24.4574 6.76291 24.4574H12.7879C12.9807 24.4574 13.1371 24.301 13.1371 24.1081ZM15.8383 18.4839L13.7003 20.1391C13.5742 20.2364 13.3986 20.2364 13.2725 20.1391L11.1345 18.4839C10.973 18.3586 10.9524 18.1216 11.0917 17.9714C11.1341 17.9256 11.1735 17.8772 11.2097 17.8264C11.3 17.6996 11.4663 17.6524 11.6122 17.7069C12.8414 18.1669 14.1828 18.148 15.3609 17.7069C15.5067 17.6524 15.673 17.6995 15.7634 17.8264C15.7995 17.877 15.8388 17.9254 15.8811 17.971C16.0199 18.1211 16.0003 18.3586 15.8383 18.4839ZM20.5592 24.1081V22.0448C20.5592 20.1243 19.0611 18.5572 17.1684 18.4471C17.0837 18.4422 17 18.4679 16.9328 18.5198L13.9711 20.8128C13.8857 20.8789 13.8357 20.9809 13.8357 21.0889V24.1081C13.8357 24.301 13.9921 24.4574 14.1849 24.4574H20.2099C20.4028 24.4574 20.5592 24.301 20.5592 24.1081Z" fill="url(#paint0_linear_91_1522)"/>
<defs>
<linearGradient id="paint0_linear_91_1522" x1="13.2392" y1="-5.90415" x2="-6.63824" y2="10.8101" gradientUnits="userSpaceOnUse">
<stop stop-color="#16BAC5"/>
<stop offset="1" stop-color="#0184BB"/>
</linearGradient>
</defs>
</svg>
