<svg width="20" height="17" viewBox="0 0 20 17" fill="none" xmlns="http://www.w3.org/2000/svg">
<path fill-rule="evenodd" clip-rule="evenodd" d="M3.39724 0H17.5153C18.8414 0 19.9207 1.08361 19.9207 2.41504V10.2158C19.9207 10.8817 19.6508 11.4853 19.2154 11.9228C18.5272 12.6134 17.6762 12.6309 17.5153 12.6309H10.8839C10.8279 12.6309 10.772 12.631 10.7162 12.6311C10.6047 12.6312 10.4935 12.6314 10.3822 12.6309C10.0828 12.6294 9.87155 12.6735 9.6588 12.8403C9.59098 12.8937 9.52468 12.9492 9.45832 13.0048C9.42541 13.0324 9.39248 13.06 9.35935 13.0874L5.87726 15.96C5.66715 16.133 5.41162 16.22 5.15495 16.22C5.00125 16.22 4.84717 16.1885 4.70369 16.1261C4.65183 16.1037 4.55567 16.0573 4.45535 15.9786C4.4262 15.9555 4.09079 15.6829 4.02756 15.2333C3.9969 15.0148 4.02605 14.8509 4.12599 14.5898C4.21571 14.3557 4.32588 14.1155 4.59921 13.5838C4.61742 13.5483 4.63486 13.5149 4.65175 13.4826C4.70434 13.3819 4.7516 13.2914 4.8006 13.1797C4.8748 13.0129 4.80666 12.6301 4.38721 12.6309C4.16735 12.6314 3.94717 12.6312 3.72709 12.6311C3.6171 12.631 3.50713 12.6309 3.39724 12.6309H3.37945C3.21364 12.6282 2.35239 12.5819 1.69671 11.9236C1.24242 11.4675 0.992188 10.8608 0.992188 10.2158V2.41504C0.992188 1.08361 2.07111 0 3.39724 0ZM5.81746 7.74705C5.04366 7.74705 4.41448 7.11498 4.41448 6.33809C4.41448 5.5612 5.04366 4.92912 5.81746 4.92912C6.59126 4.92912 7.22082 5.5612 7.22082 6.33809C7.22082 7.11498 6.59126 7.74705 5.81746 7.74705ZM8.90732 6.33809C8.90732 7.11498 9.53689 7.74705 10.3107 7.74705C11.0841 7.74705 11.7137 7.11498 11.7137 6.33809C11.7137 5.5612 11.0841 4.92912 10.3107 4.92912C9.53689 4.92912 8.90732 5.5612 8.90732 6.33809ZM13.4513 6.33809C13.4513 7.11498 14.0809 7.74705 14.8547 7.74705C15.6285 7.74705 16.2576 7.11498 16.2576 6.33809C16.2576 5.5612 15.6285 4.92912 14.8547 4.92912C14.0809 4.92912 13.4513 5.5612 13.4513 6.33809Z" fill="#FFCF5C"/>
</svg>
