<svg width="18" height="18" viewBox="0 0 18 18" fill="none" xmlns="http://www.w3.org/2000/svg">
<path d="M15.2133 9.4834H16.7666C17.0341 9.4834 17.25 9.26748 17.25 9V4.34004C17.25 4.07256 17.0341 3.85664 16.7666 3.85664H12.59V2.78672C12.59 1.66523 11.6748 0.75 10.5533 0.75C9.43184 0.75 8.5166 1.66523 8.5166 2.78672V3.85664H4.34004C4.07256 3.85664 3.85664 4.07256 3.85664 4.34004V8.5166H2.78672C1.66523 8.5166 0.75 9.43184 0.75 10.5533C0.75 11.6748 1.66523 12.59 2.78672 12.59H3.85664V16.7666C3.85664 17.0341 4.07256 17.25 4.34004 17.25H9C9.26748 17.25 9.4834 17.0341 9.4834 16.7666V15.2133C9.4834 14.6235 9.96357 14.1434 10.5533 14.1434C11.1431 14.1434 11.6232 14.6235 11.6232 15.2133V16.7666C11.6232 17.0341 11.8392 17.25 12.1066 17.25H16.7666C17.0341 17.25 17.25 17.0341 17.25 16.7666V12.1066C17.25 11.8392 17.0341 11.6232 16.7666 11.6232H15.2133C14.6235 11.6232 14.1434 11.1431 14.1434 10.5533C14.1434 9.96357 14.6235 9.4834 15.2133 9.4834ZM15.2133 12.59H16.2832V16.2832H12.59V15.2133C12.59 14.0918 11.6748 13.1766 10.5533 13.1766C9.43184 13.1766 8.5166 14.0918 8.5166 15.2133V16.2832H4.82344V12.1066C4.82344 11.8392 4.60752 11.6232 4.34004 11.6232H2.78672C2.19697 11.6232 1.7168 11.1431 1.7168 10.5533C1.7168 9.96357 2.19697 9.4834 2.78672 9.4834H4.34004C4.60752 9.4834 4.82344 9.26748 4.82344 9V4.82344H9C9.26748 4.82344 9.4834 4.60752 9.4834 4.34004V2.78672C9.4834 2.19697 9.96357 1.7168 10.5533 1.7168C11.1431 1.7168 11.6232 2.19697 11.6232 2.78672V4.34004C11.6232 4.60752 11.8392 4.82344 12.1066 4.82344H16.2832V8.5166H15.2133C14.0886 8.5166 13.1766 9.43184 13.1766 10.5533C13.1766 11.6748 14.0918 12.59 15.2133 12.59Z" fill="url(#paint0_linear_319_3261)"/>
<defs>
<linearGradient id="paint0_linear_319_3261" x1="8.76855" y1="-6.654" x2="-7.11689" y2="9.23145" gradientUnits="userSpaceOnUse">
<stop stop-color="#16BAC5"/>
<stop offset="1" stop-color="#0184BB"/>
</linearGradient>
</defs>
</svg>
