<svg width="19" height="18" viewBox="0 0 19 18" fill="none" xmlns="http://www.w3.org/2000/svg">
<path fill-rule="evenodd" clip-rule="evenodd" d="M9.95024 0H9.95473C14.8974 0 18.9167 4.03762 18.9167 9C18.9167 13.9624 14.8974 18 9.95473 18C8.13163 18 6.44076 17.4555 5.02329 16.5128L1.57768 17.6186L2.69484 14.2751C1.62026 12.7935 0.988281 10.9688 0.988281 9C0.988281 4.0365 5.00761 0 9.95024 0ZM13.4115 13.9793C14.0962 13.8308 14.9545 13.3223 15.1708 12.7092C15.387 12.0949 15.387 11.5718 15.3243 11.4604C15.2736 11.3721 15.1538 11.3142 14.9749 11.2277C14.9284 11.2052 14.8778 11.1807 14.8234 11.1533C14.5601 11.0217 13.2793 10.3861 13.0373 10.3017C12.7997 10.2117 12.5734 10.2432 12.3941 10.4974C12.36 10.5454 12.326 10.5934 12.2922 10.6412C12.0759 10.9466 11.8672 11.2412 11.6938 11.4289C11.5358 11.5977 11.2781 11.6191 11.0618 11.5291C11.0382 11.5192 11.0112 11.5082 10.9809 11.496C10.6385 11.3571 9.87903 11.0492 8.9597 10.2274C8.1843 9.53444 7.65765 8.67157 7.50526 8.41282C7.35564 8.15325 7.48469 8.00104 7.60397 7.86037C7.60618 7.85777 7.60839 7.85516 7.61059 7.85257C7.68749 7.75704 7.76212 7.67749 7.83712 7.59755C7.89107 7.54004 7.94521 7.48233 8.00053 7.41832C8.00875 7.40881 8.01674 7.39959 8.02452 7.3906C8.14198 7.255 8.21193 7.17426 8.29075 7.00544C8.38039 6.83107 8.31652 6.65107 8.25265 6.51832C8.2087 6.42535 7.93723 5.76405 7.70419 5.19637C7.60447 4.95347 7.5118 4.7277 7.44699 4.57094C7.27331 4.15357 7.14109 4.13782 6.87776 4.12657C6.8697 4.12616 6.86156 4.12575 6.85334 4.12533C6.7701 4.1211 6.67842 4.11644 6.57746 4.11644C6.23458 4.11644 5.87713 4.21769 5.66087 4.43932C5.65331 4.44707 5.64544 4.45511 5.63726 4.46346C5.36059 4.74596 4.74428 5.37526 4.74428 6.62969C4.74428 7.88655 5.63253 9.10293 5.79688 9.32799C5.80141 9.33419 5.80539 9.33964 5.80878 9.34432C5.81867 9.35736 5.83731 9.38446 5.86444 9.4239C6.20001 9.9118 7.8345 12.2883 10.2718 13.3021C12.3314 14.1593 12.9432 14.0794 13.4115 13.9793Z" fill="#00C48C"/>
</svg>
